<svg width="24" height="24" viewBox="0 0 24 24" fill="none" xmlns="http://www.w3.org/2000/svg">
<g clip-path="url(#clip0_1116_2567)">
<path d="M24.0002 18.0895V19.0734C23.9302 19.3888 23.8852 19.7067 23.8002 20.0196C23.3152 21.8196 21.8277 23.3041 20.0277 23.7897C19.7152 23.8749 19.3952 23.9224 19.0802 23.99C18.7452 23.97 18.3802 24.0176 18.0502 23.99C13.7752 23.627 11.6202 18.4625 14.3477 15.118C17.4177 11.3529 23.6127 13.2905 24.0027 18.0895H24.0002ZM20.8927 16.1319C20.5902 16.197 18.1777 19.6567 17.7427 20.1023L15.8927 18.7179C15.5252 18.5977 15.2502 18.9407 15.4277 19.2786L17.6077 20.9384C17.7302 21.016 17.8927 21.0135 18.0177 20.9384L21.3377 16.6701C21.4702 16.3497 21.2377 16.0543 20.8927 16.1294V16.1319Z" fill="#009900"/>
<path d="M24.0002 11.8162V12.7525C23.9052 13.2281 23.2977 13.2882 23.2477 12.78C23.1902 12.1967 23.1952 11.1027 24.0002 11.8162Z" fill="#009900"/>
<path d="M0 12.1437V11.255C0.0825 10.8094 0.7075 10.7443 0.7525 11.2275C0.77 11.4177 0.775 11.8909 0.7475 12.0711C0.6825 12.4767 0.1725 12.4892 0 12.1437Z" fill="#009900"/>
<path d="M12.1399 23.9899H11.2499C10.9249 23.9223 10.7174 23.5393 11.0124 23.3065C11.1349 23.2089 11.8399 23.2164 12.0249 23.2389C12.4599 23.289 12.4924 23.7871 12.1399 23.9899Z" fill="#009900"/>
<path d="M12 10.3163C14.1746 10.3163 15.9375 8.55555 15.9375 6.38351C15.9375 4.21147 14.1746 2.45068 12 2.45068C9.82538 2.45068 8.0625 4.21147 8.0625 6.38351C8.0625 8.55555 9.82538 10.3163 12 10.3163Z" fill="#009900"/>
<path d="M12.5626 17.0607L12.3926 17.8117H4.66261C4.18261 17.7567 3.86511 17.3336 3.94761 16.8604C4.41011 15.3484 4.55761 13.581 5.03511 12.094C5.12511 11.8111 5.31261 11.5207 5.56011 11.353C6.24261 10.8874 8.24261 10.8173 9.14011 10.5269C9.28011 10.4818 9.37261 10.4117 9.49011 10.3291L10.1226 10.6445C9.96261 11.01 9.60261 11.1752 9.23261 11.2779C8.30511 11.5332 7.04511 11.5758 6.18511 11.8862C6.02261 11.9438 5.94261 12.0114 5.83761 12.1466L4.68761 17.0607H12.5626Z" fill="#009900"/>
<path d="M12.6548 11.02C12.7023 11.9438 12.9948 12.9001 13.0698 13.8138C13.0798 13.9315 13.0973 14.1192 13.0748 14.2294C13.0598 14.3045 12.2948 15.2382 12.2123 15.2858C11.8323 15.5036 11.5548 15.0455 11.3448 14.7901C11.2123 14.6299 10.9198 14.3045 10.9023 14.1192L11.3448 11.02C11.7823 11.0851 12.2198 11.0851 12.6573 11.02H12.6548Z" fill="#009900"/>
<path d="M19.0301 12.3768H18.2326C18.2351 12.169 18.0551 11.9988 17.8851 11.9062C16.8726 11.6108 15.7301 11.5532 14.7251 11.2703C14.3751 11.1702 14.0226 10.9899 13.8726 10.647C14.0251 10.6745 14.4326 10.3315 14.5051 10.3315C14.5251 10.3315 14.7451 10.4943 14.8551 10.5293C15.7551 10.8197 17.7826 10.8848 18.4626 11.373C18.7876 11.6058 18.9551 11.9963 19.0276 12.3768H19.0301Z" fill="#009900"/>
<path d="M1.9101 17.4434C2.1751 17.4209 2.5926 18.0718 2.6751 18.2996C2.8326 18.7377 2.3976 19.0131 2.0851 18.7477C2.0026 18.6776 1.5926 18.0067 1.5676 17.9041C1.5176 17.6963 1.6951 17.4635 1.9101 17.4434Z" fill="#009900"/>
<path d="M10.7202 0.215104C10.8877 0.382831 10.8552 0.718285 10.6277 0.820924C10.5452 0.858475 9.81772 1.00117 9.72522 0.998665C9.30522 0.991155 9.16772 0.46294 9.53022 0.285199C9.63772 0.232628 10.3102 0.104955 10.4327 0.107458C10.5052 0.107458 10.6752 0.16754 10.7227 0.215104H10.7202Z" fill="#009900"/>
<path d="M22.675 7.13944C23.04 7.07936 23.325 7.87794 23.37 8.16083C23.435 8.56137 22.935 8.72659 22.7125 8.48627C22.635 8.40115 22.35 7.60007 22.355 7.48241C22.3625 7.30717 22.5025 7.16698 22.675 7.13944Z" fill="#009900"/>
<path d="M0.362407 13.1831C0.514907 13.1505 0.682407 13.1831 0.772407 13.3158C0.832407 13.4009 0.994907 14.207 0.984907 14.3171C0.947407 14.7102 0.367407 14.8754 0.209907 14.252C0.137407 13.9616 -0.040093 13.2682 0.362407 13.1831Z" fill="#009900"/>
<path d="M0.925007 15.3833C1.07751 15.3507 1.19251 15.4008 1.28751 15.5185C1.39501 15.6486 1.67001 16.4372 1.62001 16.5949C1.54001 16.8528 1.16751 16.9078 0.982507 16.7101C0.890007 16.6124 0.602507 15.8514 0.610007 15.7287C0.617507 15.5961 0.792507 15.4108 0.925007 15.3833Z" fill="#009900"/>
<path d="M2.75024 4.57121C3.00024 4.5587 3.19524 4.83407 3.12024 5.07439C3.10274 5.12696 2.62774 5.81039 2.58024 5.84794C2.24524 6.12582 1.86024 5.82291 1.99024 5.39733C2.04774 5.20457 2.53274 4.58123 2.75024 4.57121Z" fill="#009900"/>
<path d="M23.285 9.3425C23.47 9.30245 23.645 9.36253 23.73 9.53276C23.7875 9.64792 23.9225 10.3989 23.9 10.5141C23.8375 10.8345 23.34 10.9322 23.1925 10.6317C23.15 10.5441 23.0275 9.89075 23.02 9.77058C23.0075 9.57782 23.0775 9.38756 23.285 9.3425Z" fill="#009900"/>
<path d="M8.1899 0.633288C8.5499 0.603248 8.7599 1.04635 8.4799 1.29919C8.4174 1.35677 7.6549 1.64466 7.5624 1.65217C7.2149 1.67971 7.0224 1.27165 7.2599 1.01881C7.3474 0.926185 8.0549 0.643302 8.1874 0.633288H8.1899Z" fill="#009900"/>
<path d="M18.405 1.94782C18.58 1.9378 19.275 2.41595 19.36 2.56365C19.54 2.88158 19.275 3.22955 18.9125 3.10689C18.83 3.07935 18.185 2.63124 18.14 2.56615C17.9575 2.31331 18.105 1.96284 18.405 1.94531V1.94782Z" fill="#009900"/>
<path d="M4.20507 2.92623C4.53007 2.85363 4.76757 3.11649 4.66507 3.43442C4.62757 3.54957 3.93507 4.16791 3.81507 4.18043C3.57507 4.20546 3.32757 3.96013 3.39507 3.71229C3.43007 3.58462 4.07757 2.95377 4.20507 2.92623Z" fill="#009900"/>
<path d="M20.9849 4.58894C20.7799 4.7767 20.5449 4.67907 20.3649 4.51134C20.3049 4.45626 19.8624 3.94307 19.8474 3.90301C19.7099 3.47493 20.1549 3.21709 20.5024 3.53001C20.5624 3.58508 21.0399 4.10829 21.0574 4.14584C21.1199 4.29605 21.1074 4.47379 20.9849 4.58644V4.58894Z" fill="#009900"/>
<path d="M0.690147 8.63907C0.850147 8.61153 1.07765 8.7367 1.11515 8.89942C1.15015 9.05213 1.00265 9.75808 0.927647 9.90829C0.732647 10.2988 0.220147 10.1736 0.232647 9.68298C0.240147 9.41262 0.377647 8.69164 0.692647 8.63656L0.690147 8.63907Z" fill="#009900"/>
<path d="M8.89231 22.8758C9.13981 22.8207 10.0523 23.0084 10.1173 23.3214C10.2673 24.0423 8.80481 23.7044 8.65981 23.3689C8.57231 23.1636 8.66981 22.9233 8.89231 22.8758Z" fill="#009900"/>
<path d="M14.0952 0.25803C14.2752 0.205459 14.9852 0.345649 15.1577 0.440778C15.4802 0.621022 15.3577 1.13422 14.9777 1.14173C14.8502 1.14173 14.1302 0.979007 14.0277 0.913918C13.7777 0.756205 13.8377 0.333132 14.0952 0.25803Z" fill="#009900"/>
<path d="M17.3751 1.29441C17.6251 1.54475 17.4426 1.9528 17.0876 1.93778C16.9976 1.93277 16.2751 1.62235 16.1951 1.56227C15.9101 1.34948 16.0351 0.898874 16.4301 0.901378C16.5726 0.901378 17.2776 1.19928 17.3751 1.29691V1.29441Z" fill="#009900"/>
<path d="M6.16476 1.57959C6.47726 1.57959 6.61976 1.93507 6.46476 2.18541C6.43976 2.22546 5.73226 2.69109 5.67476 2.70862C5.28476 2.82628 5.00476 2.44326 5.22726 2.12283C5.30726 2.00767 6.02726 1.58209 6.16476 1.57959Z" fill="#009900"/>
<path d="M4.65513 20.9609C4.76013 20.8483 4.92263 20.8307 5.06513 20.8733C5.11763 20.8883 5.70013 21.2889 5.76263 21.3464C6.11013 21.6619 5.82763 22.1676 5.35763 21.9848C5.04763 21.8646 4.31763 21.3289 4.65763 20.9584L4.65513 20.9609Z" fill="#009900"/>
<path d="M11.8924 0.0249048C12.0974 -0.0201562 12.7849 -0.00763928 12.9549 0.115027C13.1499 0.255217 13.1399 0.630725 12.9249 0.730861C12.7899 0.793446 11.9674 0.788439 11.8224 0.730861C11.4674 0.588168 11.5374 0.105013 11.8899 0.0274082L11.8924 0.0249048Z" fill="#009900"/>
<path d="M3.48498 20.4628C3.42248 20.4102 2.94248 19.872 2.92748 19.8269C2.79998 19.4264 3.16248 19.1635 3.51248 19.3813C3.58498 19.4264 4.14998 20.0723 4.16248 20.1398C4.24498 20.5354 3.78498 20.7181 3.48498 20.4628Z" fill="#009900"/>
<path d="M1.44002 6.53405C1.74502 6.46395 1.96502 6.65421 1.92002 6.96463C1.91002 7.03723 1.59502 7.7582 1.55002 7.81328C1.32252 8.09366 0.830018 7.94346 0.895018 7.48784C0.920018 7.30259 1.26002 6.5766 1.44252 6.53405H1.44002Z" fill="#009900"/>
<path d="M21.765 6.41387C21.71 6.3613 21.2925 5.67537 21.2825 5.60778C21.22 5.20223 21.6525 5.01197 21.9375 5.28234C22.0275 5.36745 22.3875 5.96576 22.4025 6.08092C22.46 6.47896 22.04 6.67923 21.765 6.41137V6.41387Z" fill="#009900"/>
<path d="M6.7373 22.08C6.9298 22.0374 7.6523 22.3203 7.8073 22.443C8.0798 22.6608 7.9073 23.159 7.4823 23.0989C7.3698 23.0839 6.6923 22.7734 6.6148 22.7008C6.4398 22.5406 6.4798 22.1401 6.7398 22.08H6.7373Z" fill="#009900"/>
<path d="M14.5651 23.6495C14.4676 23.7621 13.6401 23.9148 13.4826 23.8973C13.2051 23.8648 13.0701 23.5018 13.2401 23.2865C13.4001 23.0837 14.0101 23.0962 14.2651 23.0161L14.6401 23.3491C14.6726 23.4192 14.6151 23.5944 14.5651 23.652V23.6495Z" fill="#009900"/>
<path d="M23.6249 15.0002L23.0249 14.2692C23.0524 13.9538 23.3799 13.7685 23.6424 13.9788C23.9199 14.2016 23.6599 14.7073 23.6249 15.0027V15.0002Z" fill="#009900"/>
<path d="M18.0174 20.9409C17.8924 21.016 17.7299 21.0185 17.6074 20.9409L15.4274 19.2811C15.2499 18.9457 15.5249 18.6027 15.8924 18.7204L17.7424 20.1047C18.1774 19.6591 20.5924 16.1995 20.8924 16.1344C21.2399 16.0593 21.4699 16.3547 21.3374 16.6751" fill="white"/>
</g>
<defs>
<clipPath id="clip0_1116_2567">
<rect width="24" height="24" fill="white"/>
</clipPath>
</defs>
</svg>
