<svg width="14" height="14" viewBox="0 0 14 14" fill="none" xmlns="http://www.w3.org/2000/svg">
<path opacity="0.4" d="M13.6667 10.2802V12.2802C13.6674 12.4659 13.6294 12.6497 13.555 12.8198C13.4806 12.9899 13.3715 13.1426 13.2347 13.2681C13.0979 13.3937 12.9364 13.4892 12.7605 13.5487C12.5846 13.6082 12.3983 13.6303 12.2133 13.6136C10.1619 13.3907 8.19134 12.6897 6.46001 11.5669C4.84923 10.5433 3.48356 9.17768 2.46001 7.56689C1.33333 5.8277 0.632168 3.84756 0.41334 1.78689C0.39668 1.60254 0.41859 1.41673 0.477673 1.24131C0.536757 1.06589 0.63172 0.904687 0.756517 0.767975C0.881314 0.631263 1.03321 0.522034 1.20253 0.447242C1.37186 0.37245 1.5549 0.333735 1.74001 0.333561H3.74001C4.06354 0.330376 4.3772 0.444946 4.62251 0.655916C4.86783 0.866885 5.02806 1.15986 5.07334 1.48023C5.15775 2.12027 5.31431 2.74871 5.54001 3.35356C5.6297 3.59218 5.64911 3.8515 5.59594 4.10081C5.54277 4.35012 5.41925 4.57897 5.24001 4.76023L4.39334 5.60689C5.34238 7.27592 6.72431 8.65786 8.39334 9.60689L9.24001 8.76023C9.42127 8.58099 9.65011 8.45746 9.89942 8.40429C10.1487 8.35112 10.4081 8.37053 10.6467 8.46023C11.2515 8.68593 11.88 8.84248 12.52 8.9269C12.8439 8.97258 13.1396 9.1357 13.351 9.38522C13.5624 9.63475 13.6748 9.95328 13.6667 10.2802Z" fill="#2B9EE6"/>
</svg>
