<svg width="35" height="35" viewBox="0 0 35 35" fill="none" xmlns="http://www.w3.org/2000/svg">
<g clip-path="url(#clip0_966_52)">
<path d="M17.5 35C27.165 35 35 27.165 35 17.5C35 7.83502 27.165 0 17.5 0C7.83502 0 0 7.83502 0 17.5C0 27.165 7.83502 35 17.5 35Z" fill="#C30209"/>
<path d="M26.8499 13.62V23.71C26.8499 24.1847 26.6613 24.64 26.3256 24.9757C25.9899 25.3114 25.5346 25.5 25.0599 25.5H9.94989C9.47423 25.5 9.01788 25.3117 8.6806 24.9763C8.34332 24.6409 8.15254 24.1856 8.1499 23.71V13.64C8.15254 13.1643 8.34332 12.7091 8.6806 12.3737C9.01788 12.0383 9.47423 11.85 9.94989 11.85H13.0899C13.1392 11.8519 13.1877 11.8371 13.2276 11.8081C13.2675 11.7791 13.2965 11.7375 13.3099 11.69L13.9599 10.03C14.0237 9.87295 14.133 9.73858 14.2738 9.64414C14.4146 9.5497 14.5804 9.4995 14.7499 9.5H20.2499C20.4192 9.50093 20.5842 9.553 20.7234 9.64936C20.8626 9.74572 20.9694 9.88189 21.0299 10.04L21.6499 11.64C21.6672 11.6851 21.6972 11.7241 21.7362 11.7525C21.7752 11.7809 21.8217 11.7974 21.8699 11.8H25.0399C25.2791 11.7973 25.5166 11.8426 25.738 11.9332C25.9595 12.0239 26.1606 12.158 26.3293 12.3276C26.4981 12.4973 26.6311 12.6991 26.7205 12.9211C26.8099 13.1431 26.8539 13.3807 26.8499 13.62Z" fill="white"/>
<path d="M17.5 23.52C20.2504 23.52 22.48 21.2904 22.48 18.54C22.48 15.7896 20.2504 13.56 17.5 13.56C14.7496 13.56 12.52 15.7896 12.52 18.54C12.52 21.2904 14.7496 23.52 17.5 23.52Z" stroke="#C30209" stroke-miterlimit="10"/>
</g>
<defs>
<clipPath id="clip0_966_52">
<rect width="35" height="35" fill="white"/>
</clipPath>
</defs>
</svg>
