<svg width="35" height="35" viewBox="0 0 35 35" fill="none" xmlns="http://www.w3.org/2000/svg">
<g clip-path="url(#clip0_966_58)">
<path d="M17.5 35C27.165 35 35 27.165 35 17.5C35 7.83502 27.165 0 17.5 0C7.83502 0 0 7.83502 0 17.5C0 27.165 7.83502 35 17.5 35Z" fill="#C30209"/>
<path d="M24.3002 9.5H10.6902C9.74028 9.5 8.97021 10.2701 8.97021 11.22V23.78C8.97021 24.7299 9.74028 25.5 10.6902 25.5H24.3002C25.2501 25.5 26.0202 24.7299 26.0202 23.78V11.22C26.0202 10.2701 25.2501 9.5 24.3002 9.5Z" fill="white"/>
<path d="M14.4998 16.48C15.3006 16.48 15.9498 15.8308 15.9498 15.03C15.9498 14.2292 15.3006 13.58 14.4998 13.58C13.699 13.58 13.0498 14.2292 13.0498 15.03C13.0498 15.8308 13.699 16.48 14.4998 16.48Z" fill="#C30209"/>
<path d="M22.9898 21.51H12.0298L15.0298 17.5L16.4698 19.06L19.0098 14.54L22.9898 21.51Z" fill="#C30209"/>
</g>
<defs>
<clipPath id="clip0_966_58">
<rect width="35" height="35" fill="white"/>
</clipPath>
</defs>
</svg>
