<svg width="17" height="16" viewBox="0 0 17 16" fill="none" xmlns="http://www.w3.org/2000/svg">
<g clip-path="url(#clip0_561_5050)">
<path d="M7.51098 0.0150872C13.7974 -0.364233 18.1302 6.48509 14.9323 11.9857C11.8684 17.2556 4.37857 17.3574 1.1802 12.1667C-1.97893 7.04071 1.56728 0.373718 7.51098 0.0150872ZM7.60753 1.56384C2.5005 1.86772 -0.25992 7.81185 2.85784 11.9089C5.67558 15.6112 11.38 15.206 13.6413 11.1469C16.1237 6.6907 12.6693 1.26253 7.60753 1.56384Z" fill="#9E9E9E"/>
<path d="M7.60753 2.08017C11.9193 1.80603 15.0336 5.98674 13.584 10.0571C12.0158 14.4594 6.03938 15.3206 3.24491 11.5865C0.42199 7.81352 2.90826 2.37889 7.60753 2.08017ZM10.058 5.04663C9.95328 5.06474 9.79638 5.14965 9.71103 5.2156L5.19453 9.7334C4.66305 10.4563 5.55273 11.3455 6.27516 10.814L10.8085 6.28072C11.2447 5.72596 10.7335 4.93025 10.058 5.0462V5.04663Z" fill="#9E9E9E"/>
</g>
<defs>
<clipPath id="clip0_561_5050">
<rect width="16.0116" height="16" fill="white"/>
</clipPath>
</defs>
</svg>
