<svg width="89" height="88" viewBox="0 0 89 88" fill="none" xmlns="http://www.w3.org/2000/svg">
<mask id="mask0_609_4157" style="mask-type:luminance" maskUnits="userSpaceOnUse" x="0" y="0" width="89" height="88">
<path d="M88.1382 0H0V88H88.1382V0Z" fill="white"/>
</mask>
<g mask="url(#mask0_609_4157)">
<path d="M41.2156 0.0937435C76.9235 -2.17879 100.549 37.3357 81.197 67.6409C64.465 93.8394 26.4322 95.0019 8.28528 69.7181C-11.8722 41.6426 6.92747 2.27576 41.2156 0.0937435ZM42.1446 13.5289C22.2159 15.587 24.4598 47.0881 45.9846 44.9346C65.8371 42.9479 63.536 11.323 42.1446 13.5289ZM28.9382 45.9351C26.4894 46.1304 22.7209 50.4802 21.2916 52.4335C19.3287 55.1301 15.6984 61.7285 16.9657 64.9682C17.4421 66.1926 20.4626 69.1273 21.5679 70.0897C34.2694 81.1475 53.8074 81.1475 66.5089 70.0897C68.91 67.9982 71.8686 65.497 71.316 62.0382C70.6013 57.5837 64.7604 48.1981 60.5774 46.3734C57.7332 45.13 56.8804 46.7307 54.6984 47.8599C47.2233 51.7237 40.6629 51.6855 33.2212 47.7836C31.7491 47.0118 30.9487 45.7731 28.9334 45.9351H28.9382Z" fill="white"/>
</g>
</svg>
