<svg width="10" height="10" viewBox="0 0 10 10" fill="none" xmlns="http://www.w3.org/2000/svg">
<path d="M1.45211 0.553223V1.52639C1.45211 1.99413 1.96838 2.41409 2.40961 2.41961C2.85084 2.42512 3.38791 2.00884 3.38791 1.54753V0.553223H6.61305V1.54661C6.61305 2.00884 7.15735 2.42328 7.59135 2.41869C8.02535 2.41409 8.54886 1.99505 8.54886 1.52547V0.553223H9.20437C9.53891 0.553223 10.0109 1.09448 10 1.4446V9.06728C9.96025 9.56811 9.57869 9.9605 9.08412 9.9991H0.937643C0.43041 9.96326 0.0452378 9.58189 2.9844e-05 9.06728V1.4446C-0.0117242 1.09632 0.465672 0.553223 0.796594 0.553223H1.45211ZM1.58773 3.77506C1.45301 3.79987 1.35084 3.93495 1.33276 4.06912C1.30383 4.28599 1.30654 4.93109 1.33095 5.15348C1.35084 5.33451 1.46477 5.4549 1.64289 5.47144C1.89515 5.49533 2.48376 5.49992 2.7324 5.47144C2.93583 5.44754 3.01178 5.28213 3.02535 5.09283C3.04433 4.83736 3.04885 4.35951 3.02444 4.10864C3.00726 3.93679 2.91052 3.79068 2.7324 3.77046C2.52896 3.74657 1.7758 3.74014 1.58773 3.77506ZM4.41052 3.77506C4.2758 3.79987 4.17363 3.93495 4.15555 4.06912C4.12661 4.28599 4.12932 4.93109 4.15374 5.15348C4.17363 5.33451 4.28755 5.4549 4.46567 5.47144C4.71793 5.49533 5.30654 5.49992 5.55518 5.47144C5.72878 5.45122 5.83366 5.30511 5.84813 5.13418C5.86983 4.88515 5.87435 4.33194 5.84813 4.08842C5.83005 3.92301 5.72155 3.78976 5.55609 3.77046C5.35265 3.74657 4.59949 3.74014 4.41142 3.77506H4.41052ZM7.2324 3.77506C7.07236 3.80446 6.99099 3.95517 6.97562 4.10864C6.95121 4.35308 6.95121 4.8879 6.97562 5.13234C6.9937 5.31521 7.1013 5.4549 7.28665 5.47144C7.54705 5.49441 8.12119 5.49992 8.37616 5.47144C8.55428 5.4503 8.65374 5.30878 8.66911 5.13418C8.69081 4.88515 8.69533 4.33194 8.66911 4.08842C8.65102 3.92301 8.54253 3.78976 8.37706 3.77046C8.17363 3.74657 7.42046 3.74014 7.2324 3.77506ZM1.67001 6.64402C1.49099 6.66699 1.35898 6.76715 1.33366 6.95738C1.30383 7.17792 1.30744 7.81476 1.33186 8.04174C1.34994 8.21358 1.47562 8.34039 1.6447 8.35969C1.88249 8.38542 2.47652 8.38634 2.71341 8.35969C2.89063 8.33948 3.00817 8.19704 3.02535 8.02152C3.04885 7.78075 3.05157 7.21468 3.02535 6.97667C3.00093 6.75705 2.85627 6.65872 2.65193 6.63942C2.41413 6.61645 1.90419 6.61553 1.67001 6.64493V6.64402ZM4.49189 6.64402C4.31287 6.66699 4.18086 6.76715 4.15555 6.95738C4.12571 7.17976 4.13113 7.79086 4.15374 8.0206C4.17182 8.20439 4.27942 8.33856 4.46567 8.35877C4.70347 8.3845 5.2975 8.38542 5.53439 8.35877C5.7116 8.33856 5.82914 8.19612 5.84632 8.0206C5.86983 7.77984 5.87254 7.21376 5.84632 6.97576C5.82191 6.75613 5.67725 6.6578 5.47291 6.6385C5.23511 6.61553 4.72517 6.61461 4.49099 6.64402H4.49189ZM7.31377 6.64402C7.14379 6.66607 7.00998 6.75888 6.98014 6.93992C6.94578 7.15127 6.95573 7.77432 6.97471 8.0013C6.99008 8.18693 7.09768 8.33856 7.28755 8.35877C7.52896 8.38542 8.11486 8.38542 8.35627 8.35877C8.53891 8.33856 8.65374 8.20439 8.66911 8.02152C8.69081 7.77248 8.69533 7.21928 8.66911 6.97576C8.6447 6.75613 8.50003 6.6578 8.29569 6.6385C8.0579 6.61553 7.54795 6.61461 7.31377 6.64402Z" fill="#2B9EE6"/>
</svg>
