<svg width="22" height="18" viewBox="0 0 22 18" fill="none" xmlns="http://www.w3.org/2000/svg">
<path d="M0.0500488 18V15.2C0.0500488 14.65 0.191716 14.1333 0.475049 13.65C0.758382 13.1667 1.15005 12.8 1.65005 12.55C2.50005 12.1167 3.45838 11.75 4.52505 11.45C5.59172 11.15 6.76672 11 8.05005 11C9.33338 11 10.5084 11.15 11.575 11.45C12.6417 11.75 13.6 12.1167 14.45 12.55C14.95 12.8 15.3417 13.1667 15.625 13.65C15.9084 14.1333 16.05 14.65 16.05 15.2V18H0.0500488ZM8.05005 10C6.95005 10 6.00838 9.60833 5.22505 8.825C4.44172 8.04167 4.05005 7.1 4.05005 6H3.80005C3.65005 6 3.52922 5.95417 3.43755 5.8625C3.34588 5.77083 3.30005 5.65 3.30005 5.5C3.30005 5.35 3.34588 5.22917 3.43755 5.1375C3.52922 5.04583 3.65005 5 3.80005 5H4.05005C4.05005 4.25 4.23338 3.575 4.60005 2.975C4.96672 2.375 5.45005 1.9 6.05005 1.55V2.5C6.05005 2.65 6.09588 2.77083 6.18755 2.8625C6.27922 2.95417 6.40005 3 6.55005 3C6.70005 3 6.82088 2.95417 6.91255 2.8625C7.00422 2.77083 7.05005 2.65 7.05005 2.5V1.15C7.20005 1.1 7.35838 1.0625 7.52505 1.0375C7.69172 1.0125 7.86672 1 8.05005 1C8.23338 1 8.40838 1.0125 8.57505 1.0375C8.74172 1.0625 8.90005 1.1 9.05005 1.15V2.5C9.05005 2.65 9.09588 2.77083 9.18755 2.8625C9.27922 2.95417 9.40005 3 9.55005 3C9.70005 3 9.82088 2.95417 9.91255 2.8625C10.0042 2.77083 10.05 2.65 10.05 2.5V1.55C10.65 1.9 11.1334 2.375 11.5 2.975C11.8667 3.575 12.05 4.25 12.05 5H12.3C12.45 5 12.5709 5.04583 12.6625 5.1375C12.7542 5.22917 12.8 5.35 12.8 5.5C12.8 5.65 12.7542 5.77083 12.6625 5.8625C12.5709 5.95417 12.45 6 12.3 6H12.05C12.05 7.1 11.6584 8.04167 10.875 8.825C10.0917 9.60833 9.15005 10 8.05005 10ZM8.05005 8C8.60005 8 9.07088 7.80417 9.46255 7.4125C9.85422 7.02083 10.05 6.55 10.05 6H6.05005C6.05005 6.55 6.24588 7.02083 6.63755 7.4125C7.02922 7.80417 7.50005 8 8.05005 8ZM15.55 12L15.4 11.25C15.3 11.2167 15.2042 11.1792 15.1125 11.1375C15.0209 11.0958 14.9334 11.0333 14.85 10.95L14.15 11.2L13.65 10.3L14.2 9.8V9.2L13.65 8.7L14.15 7.8L14.85 8.05C14.9167 7.98333 15 7.925 15.1 7.875C15.2 7.825 15.3 7.78333 15.4 7.75L15.55 7H16.55L16.7 7.75C16.8 7.78333 16.9 7.825 17 7.875C17.1 7.925 17.1834 7.98333 17.25 8.05L17.95 7.8L18.45 8.7L17.9 9.2V9.8L18.45 10.3L17.95 11.2L17.25 10.95C17.1667 11.0333 17.0792 11.0958 16.9875 11.1375C16.8959 11.1792 16.8 11.2167 16.7 11.25L16.55 12H15.55ZM16.05 10.25C16.25 10.25 16.425 10.175 16.575 10.025C16.725 9.875 16.8 9.7 16.8 9.5C16.8 9.3 16.725 9.125 16.575 8.975C16.425 8.825 16.25 8.75 16.05 8.75C15.85 8.75 15.675 8.825 15.525 8.975C15.375 9.125 15.3 9.3 15.3 9.5C15.3 9.7 15.375 9.875 15.525 10.025C15.675 10.175 15.85 10.25 16.05 10.25ZM17.85 7L17.65 5.95C17.5 5.9 17.3625 5.8375 17.2375 5.7625C17.1125 5.6875 17 5.6 16.9 5.5L15.85 5.85L15.15 4.65L16 3.9C15.9667 3.81667 15.95 3.75 15.95 3.7V3.3C15.95 3.25 15.9667 3.18333 16 3.1L15.15 2.35L15.85 1.15L16.9 1.5C17 1.4 17.1125 1.3125 17.2375 1.2375C17.3625 1.1625 17.5 1.1 17.65 1.05L17.85 0H19.25L19.45 1.05C19.6 1.1 19.7375 1.1625 19.8625 1.2375C19.9875 1.3125 20.1 1.4 20.2 1.5L21.25 1.15L21.95 2.35L21.1 3.1C21.1334 3.18333 21.15 3.25 21.15 3.3V3.7C21.15 3.75 21.1334 3.81667 21.1 3.9L21.95 4.65L21.25 5.85L20.2 5.5C20.1 5.6 19.9875 5.6875 19.8625 5.7625C19.7375 5.8375 19.6 5.9 19.45 5.95L19.25 7H17.85ZM18.55 4.75C18.9 4.75 19.1959 4.62917 19.4375 4.3875C19.6792 4.14583 19.8 3.85 19.8 3.5C19.8 3.15 19.6792 2.85417 19.4375 2.6125C19.1959 2.37083 18.9 2.25 18.55 2.25C18.2 2.25 17.9042 2.37083 17.6625 2.6125C17.4209 2.85417 17.3 3.15 17.3 3.5C17.3 3.85 17.4209 4.14583 17.6625 4.3875C17.9042 4.62917 18.2 4.75 18.55 4.75Z" fill="black"/>
</svg>
