<svg width="12" height="15" viewBox="0 0 12 15" fill="none" xmlns="http://www.w3.org/2000/svg">
<g clip-path="url(#clip0_299_532)">
<path d="M10.8253 0C11.2513 0.102536 11.5196 0.429321 11.5625 0.862946V14.1355C11.5098 14.6071 11.2124 14.9577 10.7234 14.9996H0.856056C0.508288 14.9777 0.183337 14.73 0.0704305 14.4044C-0.00313582 14.1918 -0.0153313 13.3457 0.0161409 13.1078C0.0204683 13.0757 0.0208617 13.0448 0.0456461 13.0197L3.25778 10.3561L3.34157 10.3448C3.35338 10.3745 3.36479 10.4054 3.3876 10.4293C3.74993 10.8015 4.06465 11.2296 4.4195 11.601C4.55562 11.7435 4.6815 11.9106 4.89591 11.9122C5.12369 11.9137 5.5521 11.5165 5.74408 11.3655C6.76182 10.5655 7.74296 9.71705 8.76306 8.91985C9.12538 8.50814 8.63992 7.94497 8.1761 8.24828L4.97341 10.8352C4.9325 10.8414 4.80779 10.7013 4.77238 10.6637C4.42028 10.292 4.03239 9.71157 3.66574 9.39183C3.51231 9.25798 3.33567 9.22315 3.14723 9.30964L0.0181079 11.8644V0.776456C0.0181079 0.725971 0.0956083 0.529117 0.12472 0.47237C0.250609 0.225814 0.495699 0.077489 0.754165 0H10.8253ZM2.21959 2.64402C1.71603 2.69529 1.6464 3.35942 2.12517 3.51362L7.30865 3.48818C7.74257 3.24436 7.57734 2.67102 7.10014 2.63698L2.21998 2.64441L2.21959 2.64402ZM2.13029 4.86968C1.65309 5.01879 1.70777 5.6704 2.21408 5.73889C2.90568 5.83242 3.79359 5.67627 4.50565 5.73889C4.99426 5.6477 5.05484 5.009 4.56506 4.86459L2.12989 4.86968H2.13029Z" fill="#6F42C1"/>
</g>
<defs>
<clipPath id="clip0_299_532">
<rect width="11.5625" height="15" fill="white"/>
</clipPath>
</defs>
</svg>
