<svg width="24" height="24" viewBox="0 0 24 24" fill="none" xmlns="http://www.w3.org/2000/svg">
<path d="M18 21.5C18.9 21.5 19.6792 21.2 20.3375 20.6C20.9958 20 21.375 19.2583 21.475 18.375C21.3917 18.4083 21.3125 18.4375 21.2375 18.4625C21.1625 18.4875 21.0833 18.5 21 18.5H20C19.7167 18.5 19.4792 18.4042 19.2875 18.2125C19.0958 18.0208 19 17.7833 19 17.5V17H17V16C17 15.7167 17.0958 15.4792 17.2875 15.2875C17.4792 15.0958 17.7167 15 18 15H18.5C18.5 14.9167 18.5083 14.8375 18.525 14.7625C18.5417 14.6875 18.5667 14.6167 18.6 14.55C18.5 14.5333 18.4 14.5208 18.3 14.5125C18.2 14.5042 18.1 14.5 18 14.5C17.0333 14.5 16.2083 14.8417 15.525 15.525C14.8417 16.2083 14.5 17.0333 14.5 18H16.5C17.05 18 17.5208 18.1958 17.9125 18.5875C18.3042 18.9792 18.5 19.45 18.5 20V20.5H17V21.35C17.1667 21.4 17.3292 21.4375 17.4875 21.4625C17.6458 21.4875 17.8167 21.5 18 21.5ZM12 4.25C12.2167 4.25 12.3958 4.17917 12.5375 4.0375C12.6792 3.89583 12.75 3.71667 12.75 3.5C12.75 3.28333 12.6792 3.10417 12.5375 2.9625C12.3958 2.82083 12.2167 2.75 12 2.75C11.7833 2.75 11.6042 2.82083 11.4625 2.9625C11.3208 3.10417 11.25 3.28333 11.25 3.5C11.25 3.71667 11.3208 3.89583 11.4625 4.0375C11.6042 4.17917 11.7833 4.25 12 4.25ZM18 23C16.6167 23 15.4375 22.5125 14.4625 21.5375C13.4875 20.5625 13 19.3833 13 18C13 16.6167 13.4875 15.4375 14.4625 14.4625C15.4375 13.4875 16.6167 13 18 13C19.3833 13 20.5625 13.4875 21.5375 14.4625C22.5125 15.4375 23 16.6167 23 18C23 19.3833 22.5125 20.5625 21.5375 21.5375C20.5625 22.5125 19.3833 23 18 23ZM7 9H17V7H7V9ZM11.675 21H5C4.45 21 3.97917 20.8042 3.5875 20.4125C3.19583 20.0208 3 19.55 3 19V5C3 4.45 3.19583 3.97917 3.5875 3.5875C3.97917 3.19583 4.45 3 5 3H9.2C9.41667 2.4 9.77917 1.91667 10.2875 1.55C10.7958 1.18333 11.3667 1 12 1C12.6333 1 13.2042 1.18333 13.7125 1.55C14.2208 1.91667 14.5833 2.4 14.8 3H19C19.55 3 20.0208 3.19583 20.4125 3.5875C20.8042 3.97917 21 4.45 21 5V11.7C20.5167 11.4667 20.0292 11.2917 19.5375 11.175C19.0458 11.0583 18.5333 11 18 11C17.8167 11 17.6458 11.0042 17.4875 11.0125C17.3292 11.0208 17.1667 11.0417 17 11.075V11H7V13H13.125C12.825 13.2833 12.5542 13.5917 12.3125 13.925C12.0708 14.2583 11.8583 14.6167 11.675 15H7V17H11.075C11.0417 17.1667 11.0208 17.3292 11.0125 17.4875C11.0042 17.6458 11 17.8167 11 18C11 18.55 11.05 19.0625 11.15 19.5375C11.25 20.0125 11.425 20.5 11.675 21Z" fill="black"/>
</svg>
