<svg width="20" height="20" viewBox="0 0 20 20" fill="none" xmlns="http://www.w3.org/2000/svg">
<g clip-path="url(#clip0_299_525)">
<path d="M10.7344 17.9956C10.7344 17.9956 10.7332 17.9984 10.7328 18C10.5772 18 10.4216 18 10.2664 18C10.0984 18 9.86563 16.4863 9.84563 16.3371C9.76004 15.7002 9.74124 15.0563 9.74764 14.4147C9.76044 13.1188 9.88003 11.8221 9.79004 10.5262C9.78084 10.3945 9.76724 10.2564 9.69324 10.1465C9.63525 10.0608 9.54645 10.0012 9.45926 9.9449C8.98688 9.64136 8.48971 9.36639 8.07854 8.98548C6.9818 7.96932 6.67942 6.20998 7.36538 4.88671C8.05134 3.56304 9.66205 2.78415 11.1372 3.05278C12.2419 3.25395 13.2314 4.0118 13.697 5.02598C14.1626 6.04016 14.0874 7.28368 13.4934 8.22961C13.0219 8.98072 12.2739 9.51479 11.5187 9.98538C11.4275 10.0421 11.3323 10.102 11.2792 10.1949C11.2344 10.273 11.2252 10.3655 11.2176 10.4552C11.1124 11.7185 11.2272 12.9886 11.25 14.2564C11.2724 15.5225 11.1972 16.816 10.7344 17.9956ZM10.7348 10.0258H10.262V16.8235H10.7348V10.0258Z" fill="#B00000"/>
<path d="M10.7354 10.0259H10.2626V16.8236H10.7354V10.0259Z" fill="white"/>
</g>
<defs>
<clipPath id="clip0_299_525">
<rect width="7" height="15" fill="white" transform="translate(7 3)"/>
</clipPath>
</defs>
</svg>
