<svg width="29" height="21" viewBox="0 0 29 21" fill="none" xmlns="http://www.w3.org/2000/svg">
<path d="M7.21875 21C5.22812 21 3.52734 20.3109 2.11641 18.9328C0.705469 17.5547 0 15.8703 0 13.8797C0 12.1734 0.514062 10.6531 1.54219 9.31875C2.57031 7.98437 3.91562 7.13125 5.57812 6.75937C6.125 4.74687 7.21875 3.11719 8.85937 1.87031C10.5 0.623437 12.3594 0 14.4375 0C16.9969 0 19.168 0.891406 20.9508 2.67422C22.7336 4.45703 23.625 6.62812 23.625 9.1875C25.1344 9.3625 26.3867 10.0133 27.382 11.1398C28.3773 12.2664 28.875 13.5844 28.875 15.0937C28.875 16.7344 28.3008 18.1289 27.1523 19.2773C26.0039 20.4258 24.6094 21 22.9687 21H7.21875Z" fill="#A80007"/>
<path d="M14.4928 16.0717L10 11.5788L11.2591 10.3054L13.5914 12.6519V7H15.3943V12.6519L17.7265 10.3054L19 11.5788L14.4928 16.0717Z" fill="white"/>
</svg>
