<svg width="24" height="22" viewBox="0 0 24 22" fill="none" xmlns="http://www.w3.org/2000/svg">
<path d="M10.5417 20.625V10.0833H13.2917V20.625C13.2917 20.9897 13.1468 21.3394 12.8889 21.5973C12.6311 21.8551 12.2813 22 11.9167 22C11.552 22 11.2023 21.8551 10.9444 21.5973C10.6865 21.3394 10.5417 20.9897 10.5417 20.625ZM13.2917 1.375V5.5H14.6667C15.0313 5.5 15.3811 5.64487 15.6389 5.90273C15.8968 6.16059 16.0417 6.51033 16.0417 6.875C16.0417 7.23967 15.8968 7.58941 15.6389 7.84727C15.3811 8.10513 15.0313 8.25 14.6667 8.25H9.16667C8.80199 8.25 8.45226 8.10513 8.19439 7.84727C7.93653 7.58941 7.79167 7.23967 7.79167 6.875C7.79167 6.51033 7.93653 6.16059 8.19439 5.90273C8.45226 5.64487 8.80199 5.5 9.16667 5.5H10.5417V1.375C10.5417 1.01033 10.6865 0.660591 10.9444 0.402728C11.2023 0.144865 11.552 0 11.9167 0C12.2813 0 12.6311 0.144865 12.8889 0.402728C13.1468 0.660591 13.2917 1.01033 13.2917 1.375ZM1.375 13.75C1.01033 13.75 0.660591 13.8949 0.402728 14.1527C0.144866 14.4106 0 14.7603 0 15.125C0 15.4897 0.144866 15.8394 0.402728 16.0973C0.660591 16.3551 1.01033 16.5 1.375 16.5H6.875C7.23967 16.5 7.58941 16.3551 7.84727 16.0973C8.10513 15.8394 8.25 15.4897 8.25 15.125C8.25 14.7603 8.10513 14.4106 7.84727 14.1527C7.58941 13.8949 7.23967 13.75 6.875 13.75H5.5V1.375C5.5 1.01033 5.35513 0.660591 5.09727 0.402728C4.83941 0.144865 4.48967 0 4.125 0C3.76033 0 3.41059 0.144865 3.15273 0.402728C2.89487 0.660591 2.75 1.01033 2.75 1.375V13.75H1.375ZM15.5833 15.125C15.5833 14.7603 15.7282 14.4106 15.9861 14.1527C16.2439 13.8949 16.5937 13.75 16.9583 13.75H18.3333V1.375C18.3333 1.01033 18.4782 0.660591 18.7361 0.402728C18.9939 0.144865 19.3437 0 19.7083 0C20.073 0 20.4227 0.144865 20.6806 0.402728C20.9385 0.660591 21.0833 1.01033 21.0833 1.375V13.75H22.4583C22.823 13.75 23.1727 13.8949 23.4306 14.1527C23.6885 14.4106 23.8333 14.7603 23.8333 15.125C23.8333 15.4897 23.6885 15.8394 23.4306 16.0973C23.1727 16.3551 22.823 16.5 22.4583 16.5H16.9583C16.5937 16.5 16.2439 16.3551 15.9861 16.0973C15.7282 15.8394 15.5833 15.4897 15.5833 15.125ZM2.75 18.3333V20.625C2.75 20.9897 2.89487 21.3394 3.15273 21.5973C3.41059 21.8551 3.76033 22 4.125 22C4.48967 22 4.83941 21.8551 5.09727 21.5973C5.35513 21.3394 5.5 20.9897 5.5 20.625V18.3333H2.75ZM18.3333 20.625V18.3333H21.0833V20.625C21.0833 20.9897 20.9385 21.3394 20.6806 21.5973C20.4227 21.8551 20.073 22 19.7083 22C19.3437 22 18.9939 21.8551 18.7361 21.5973C18.4782 21.3394 18.3333 20.9897 18.3333 20.625Z" fill="white"/>
</svg>
