<svg width="50" height="60" viewBox="0 0 50 60" fill="none" xmlns="http://www.w3.org/2000/svg">
<path d="M42.4284 7.27969C37.5753 2.4266 31.2136 0 24.8529 0C18.4924 0 12.1318 2.4266 7.27857 7.27969C-2.42619 16.984 -2.42619 32.7223 7.27857 42.4276L24.8529 60L42.4283 42.4276C52.1327 32.7223 52.1327 16.984 42.4284 7.27969ZM39.6574 39.6555L24.8529 54.458L10.0502 39.6566C1.88771 31.4937 1.88771 18.2127 10.0502 10.0507C14.0038 6.09703 19.2612 3.91922 24.8531 3.91922C30.4449 3.91922 35.7028 6.09703 39.6564 10.0507C47.8194 18.2126 47.8194 31.4937 39.6574 39.6555Z" fill="black"/>
<path d="M24.8529 24.9852C28.4287 24.9852 31.3274 22.0879 31.3274 18.5102C31.3274 14.9345 28.4287 12.0362 24.8529 12.0362C21.2763 12.0362 18.3775 14.9345 18.3775 18.5102C18.3775 22.0879 21.2764 24.9852 24.8529 24.9852Z" fill="black"/>
<path d="M24.853 27.4194C19.7219 27.4194 15.563 31.5798 15.563 36.7093H34.1426C34.1425 31.5798 29.9832 27.4194 24.853 27.4194Z" fill="black"/>
</svg>
