<svg width="36" height="34" viewBox="0 0 36 34" fill="none" xmlns="http://www.w3.org/2000/svg">
<path d="M9.82561 0.802844C4.61717 2.55224 1.3967 5.69322 0.283445 10.5438C-0.551495 14.1619 0.482241 18.2173 3.06658 21.4378C3.74248 22.233 4.25935 23.0679 4.25935 23.3065C4.25935 23.5053 3.6232 24.3402 2.86778 25.1751C2.11236 25.9703 1.47622 26.8848 1.47622 27.1631C1.47622 28.3161 5.69067 27.6004 7.7979 26.1294C8.6726 25.533 8.95092 25.4932 10.581 26.0101C13.4437 26.9245 18.2148 26.527 21.2762 25.1354C24.4967 23.7041 27.7569 20.2848 28.7112 17.3426C30.3015 12.5715 28.7907 6.76672 25.1328 3.58599C22.31 1.08117 19.6859 0.126958 15.3919 0.00768117C13.0461 -0.0718369 10.8196 0.484771 9.82561 0.802844ZM20.8786 10.3848C20.9581 10.7824 20.7991 11.2595 20.481 11.4583C20.2027 11.6571 16.7066 11.4583 13.844 11.4583C8.35724 11.4583 7.83766 11.4185 8.35453 10.0667C8.59308 9.47033 9.30875 9.43057 14.6762 9.51009C20.2425 9.62937 20.7593 9.70889 20.8786 10.3848ZM18.175 15.1956C18.5726 15.6727 18.5726 15.9113 18.175 16.3884C17.7774 16.8655 16.8181 16.6863 13.5181 16.6863C10.2181 16.6863 9.03043 16.8655 8.63284 16.3884C8.23525 15.9113 8.23525 15.6727 8.63284 15.1956C9.03043 14.7185 10.1039 14.8099 13.4039 14.8099C16.7039 14.8099 17.7774 14.7185 18.175 15.1956Z" fill="#6BC140"/>
<path d="M31.5789 16.5279C31.5789 16.9653 31.0222 18.3568 30.3463 19.7086C28.3186 23.8038 23.3885 27.5809 19.0548 28.3363C16.868 28.7339 16.709 28.893 17.5042 29.7677C18.6174 31.0002 21.7186 31.7954 25.2969 31.7159C27.8018 31.6761 29.1536 31.8351 30.7837 32.4713C31.9765 32.9086 33.368 33.2665 33.8849 33.3062C35.2367 33.3062 35.4355 32.2327 34.203 31.2785C32.4138 29.8472 32.2548 29.1713 33.368 27.5014C35.515 24.3207 35.5945 20.8616 33.5668 17.6412C32.3343 15.7327 31.5789 15.2954 31.5789 16.5279Z" fill="#6BC140"/>
</svg>
