<svg width="46" height="53" viewBox="0 0 46 53" fill="none" xmlns="http://www.w3.org/2000/svg">
<path d="M44.0911 36.2473C43.8966 36.0129 43.7056 35.7785 43.5181 35.5523C40.94 32.434 39.3802 30.552 39.3802 21.7242C39.3802 17.1539 38.2868 13.4039 36.1318 10.5914C34.5427 8.51367 32.3947 6.9375 29.5634 5.77266C29.527 5.75239 29.4944 5.7258 29.4673 5.69414C28.449 2.28398 25.6622 0 22.5193 0C19.3763 0 16.5908 2.28398 15.5724 5.69062C15.5452 5.72112 15.5131 5.74687 15.4775 5.7668C8.87044 8.48672 5.6595 13.7051 5.6595 21.7207C5.6595 30.552 4.10208 32.434 1.52161 35.5488C1.33411 35.775 1.1431 36.0047 0.948567 36.2437C0.446067 36.8498 0.127693 37.587 0.0311216 38.3683C-0.0654498 39.1496 0.0638241 39.9422 0.403645 40.6523C1.12669 42.1758 2.66771 43.1215 4.42669 43.1215H40.6247C42.3755 43.1215 43.906 42.177 44.6314 40.6605C44.9727 39.9502 45.1032 39.157 45.0074 38.3748C44.9117 37.5926 44.5937 36.8543 44.0911 36.2473Z" fill="black"/>
<path d="M22.5193 52.5C24.2127 52.4986 25.8741 52.039 27.3274 51.1697C28.7807 50.3005 29.9717 49.0542 30.774 47.5629C30.8118 47.4914 30.8304 47.4114 30.8281 47.3306C30.8259 47.2498 30.8027 47.1709 30.761 47.1017C30.7192 47.0324 30.6603 46.9752 30.5899 46.9355C30.5195 46.8957 30.44 46.8749 30.3591 46.875H14.6818C14.6008 46.8747 14.5212 46.8954 14.4506 46.935C14.38 46.9747 14.3209 47.0319 14.279 47.1012C14.2371 47.1704 14.2139 47.2494 14.2116 47.3303C14.2092 47.4112 14.2279 47.4913 14.2658 47.5629C15.0679 49.054 16.2587 50.3002 17.7118 51.1694C19.1649 52.0386 20.8261 52.4984 22.5193 52.5Z" fill="black"/>
</svg>
