<svg width="18" height="18" viewBox="0 0 18 18" fill="none" xmlns="http://www.w3.org/2000/svg">
<g clip-path="url(#clip0_616_1108)">
<path d="M5.60938 11.7792V1.68262L6.73121 2.24354L7.85305 1.68262L8.97279 2.24354L10.1076 1.68262L11.2186 2.24354L12.333 1.68262L13.4524 2.24354L14.5841 1.68262L15.7063 2.24354L16.8278 1.68262V9.53548" stroke="#A80007" stroke-width="1.52899" stroke-linejoin="round"/>
<path d="M16.8268 9.53516V13.4616C16.8268 14.2054 16.5314 14.9188 16.0054 15.4447C15.4794 15.9707 14.7661 16.2662 14.0222 16.2662M14.0222 16.2662C13.2784 16.2662 12.5651 15.9707 12.0391 15.4447C11.5131 14.9188 11.2177 14.2054 11.2177 13.4616V11.7788H1.68203C1.60819 11.7782 1.53496 11.7922 1.46661 11.8202C1.39826 11.8482 1.33616 11.8894 1.28395 11.9417C1.23173 11.9939 1.19044 12.056 1.16248 12.1243C1.13452 12.1927 1.12046 12.2659 1.12112 12.3398C1.12112 14.5834 1.3574 16.2662 3.92571 16.2662H14.0222Z" stroke="#A80007" stroke-width="1.52899" stroke-linejoin="round"/>
<path d="M7.85352 5.04785H14.5845M10.0972 7.85245H14.5845" stroke="#A80007" stroke-width="1.52899" stroke-linecap="round" stroke-linejoin="round"/>
</g>
<defs>
<clipPath id="clip0_616_1108">
<rect width="17.9494" height="17.9494" fill="white"/>
</clipPath>
</defs>
</svg>
