<svg width="21" height="21" viewBox="0 0 21 21" fill="none" xmlns="http://www.w3.org/2000/svg">
<path d="M7.69237 4.27441H5.98291C5.52953 4.27441 5.09472 4.45452 4.77413 4.77511C4.45354 5.09569 4.27344 5.5305 4.27344 5.98388V16.2407C4.27344 16.6941 4.45354 17.1289 4.77413 17.4495C5.09472 17.77 5.52953 17.9502 5.98291 17.9502H14.5302C14.9836 17.9502 15.4184 17.77 15.739 17.4495C16.0596 17.1289 16.2397 16.6941 16.2397 16.2407V5.98388C16.2397 5.5305 16.0596 5.09569 15.739 4.77511C15.4184 4.45452 14.9836 4.27441 14.5302 4.27441H12.8208" stroke="#A80007" stroke-width="1.67234" stroke-linecap="round" stroke-linejoin="round"/>
<path d="M7.69141 14.5307V10.2571M10.2556 14.5307V13.676M12.8198 14.5307V11.9665M7.69141 4.27392C7.69141 3.82054 7.87151 3.38573 8.1921 3.06514C8.51269 2.74456 8.94749 2.56445 9.40087 2.56445H11.1103C11.5637 2.56445 11.9985 2.74456 12.3191 3.06514C12.6397 3.38573 12.8198 3.82054 12.8198 4.27392C12.8198 4.7273 12.6397 5.16211 12.3191 5.4827C11.9985 5.80328 11.5637 5.98339 11.1103 5.98339H9.40087C8.94749 5.98339 8.51269 5.80328 8.1921 5.4827C7.87151 5.16211 7.69141 4.7273 7.69141 4.27392Z" stroke="#A80007" stroke-width="1.67234" stroke-linecap="round" stroke-linejoin="round"/>
</svg>
