<svg width="47" height="47" viewBox="0 0 47 47" fill="none" xmlns="http://www.w3.org/2000/svg">
<path d="M47 23.5C47 26.0944 44.8944 28.2 42.3 28.2H4.7C2.1056 28.2 0 26.0944 0 23.5C0 20.9056 2.1056 18.8 4.7 18.8H42.3C44.8944 18.8 47 20.9056 47 23.5Z" fill="black"/>
<path d="M47 4.7C47 7.2944 44.8944 9.4 42.3 9.4H4.7C2.1056 9.4 0 7.2944 0 4.7C0 2.1056 2.1056 0 4.7 0H42.3C44.8944 0 47 2.1056 47 4.7Z" fill="black"/>
<path d="M47 42.3C47 44.8944 44.8944 47 42.3 47H4.7C2.1056 47 0 44.8944 0 42.3C0 39.7056 2.1056 37.6 4.7 37.6H42.3C44.8944 37.6 47 39.7056 47 42.3Z" fill="black"/>
</svg>
