<svg width="40" height="40" viewBox="0 0 40 40" fill="none" xmlns="http://www.w3.org/2000/svg">
<circle opacity="0.1" cx="20" cy="20" r="20" fill="white"/>
<g clip-path="url(#clip0_245_220)">
<path d="M14.4141 13.8948C13.8542 16.4429 14.4222 18.6178 16.7432 19.9973C18.8044 21.2227 20.9062 20.9955 22.8376 19.6727C24.9232 18.2445 25.475 16.2076 24.7609 13.7487C25.6211 13.7487 26.4001 13.7487 27.1873 13.7487C27.4551 13.7487 27.7553 13.7568 27.8284 14.0733C27.9095 14.4304 27.6174 14.5034 27.3496 14.5521C26.5462 14.7063 26.4569 15.2744 26.465 15.956C26.4731 20.1759 26.4731 24.4038 26.4731 28.6237C26.4731 29.2485 26.465 29.8653 25.8889 30.4333C25.6454 29.914 25.3289 29.492 24.7365 29.4027C24.2496 29.3297 24.4119 28.9077 24.4038 28.6074C24.347 26.6761 24.2415 26.5706 22.302 26.5706C19.4536 26.5706 16.6052 26.5462 13.7568 26.5868C13.0589 26.5949 12.7911 26.4651 12.8073 25.686C12.856 22.4481 12.8236 19.2021 12.8317 15.9641C12.8317 14.6333 13.2618 14.0652 14.4141 13.8948Z" fill="white"/>
<path d="M21.3445 13.6108C21.4581 12.9697 21.3526 12.1744 21.9693 11.9959C22.6429 11.8011 23.0243 12.5233 23.3895 13.0021C25.1586 15.2906 24.1361 18.6746 21.4094 19.5997C21.1984 19.6727 21.0199 19.7458 20.7683 19.6484C18.8369 18.918 18.1309 17.011 19.1696 15.1445C19.7783 15.672 19.8838 16.3537 19.8513 17.084C19.8351 17.3924 19.8188 17.7251 20.2489 17.7089C20.5817 17.7008 20.6222 17.4167 20.6466 17.1408C20.7196 16.1021 20.3707 15.2176 19.7052 14.4466C19.2995 13.9759 18.983 14.049 18.6097 14.5278C17.3437 16.1508 17.7008 18.2769 19.5267 19.8675C16.9055 20.2895 14.1545 17.3275 15.2257 14.1058C15.5422 13.1563 16.1184 12.3773 16.8731 11.72C17.5385 11.1357 18.1958 10.5595 17.9524 9.4883C17.8388 8.97705 18.2689 8.92836 18.6665 9.06632C19.8594 9.49642 20.4924 10.3647 20.6709 11.6063C20.7602 12.2637 20.679 12.9859 21.3445 13.6108Z" fill="white"/>
<path d="M17.9766 30.9771C16.0777 30.9771 14.1788 30.9771 12.2799 30.9771C10.6081 30.9689 9.91837 30.2142 10.0076 28.5344C10.0482 27.7797 10.4215 27.3658 11.16 27.3658C15.0877 27.3577 19.0235 27.3658 22.9512 27.3496C23.4787 27.3496 23.6248 27.5768 23.6166 28.0637C23.6004 28.997 23.3894 30.0519 24.7933 30.2467C24.9637 30.271 25.0124 30.482 24.98 30.6525C24.915 31.0095 24.6229 30.9771 24.3632 30.9771C22.5941 30.9771 20.825 30.9771 19.056 30.9771C18.6989 30.9771 18.3337 30.9771 17.9766 30.9771Z" fill="white"/>
<path d="M28.762 14.2843C29.1678 14.7388 29.2895 15.1932 29.2814 15.7045C29.2652 16.7513 29.2895 17.7981 29.2733 18.845C29.2652 19.9162 28.8026 20.3057 27.7476 20.2489C27.3662 20.2246 27.2364 20.1109 27.2445 19.7295C27.2607 18.4555 27.2526 17.1814 27.2526 15.9073C27.2526 15.6477 27.2202 15.3393 27.5934 15.3149C28.2102 15.2662 28.4455 14.7793 28.762 14.2843Z" fill="white"/>
</g>
<defs>
<clipPath id="clip0_245_220">
<rect width="19.2896" height="22" fill="white" transform="translate(10 9)"/>
</clipPath>
</defs>
</svg>
