<svg width="44" height="44" viewBox="0 0 44 44" fill="none" xmlns="http://www.w3.org/2000/svg">
<g clip-path="url(#clip0_415_79)">
<path d="M22 44C34.1503 44 44 34.1503 44 22C44 9.84974 34.1503 0 22 0C9.84974 0 0 9.84974 0 22C0 34.1503 9.84974 44 22 44Z" fill="#C30209"/>
<path d="M24.5771 12.8606V16.192C24.5771 16.4087 24.6632 16.6166 24.8165 16.7698C24.9697 16.923 25.1776 17.0092 25.3943 17.0092H28.7006C28.7498 17.0085 28.7977 16.9933 28.8384 16.9657C28.8791 16.938 28.9108 16.899 28.9296 16.8535C28.9483 16.808 28.9532 16.758 28.9438 16.7096C28.9344 16.6613 28.911 16.6169 28.8765 16.5817L24.992 12.6846C24.9587 12.648 24.9148 12.6227 24.8665 12.6122C24.8182 12.6016 24.7678 12.6063 24.7222 12.6257C24.6767 12.645 24.6383 12.678 24.6123 12.72C24.5863 12.7621 24.574 12.8112 24.5771 12.8606Z" fill="#C30209"/>
<g clip-path="url(#clip1_415_79)">
<path d="M30.9769 27.1271C30.9111 27.4464 30.7233 27.7 30.5167 27.9347C30.3383 28.1319 30.3758 28.3479 30.4604 28.5639C30.7139 29.2494 30.4885 29.8598 29.8594 30.2261C29.5213 30.4327 29.1363 30.5266 28.77 30.6299C28.1221 30.8177 27.4741 31.0055 26.8168 31.1839C26.1312 31.3717 25.4457 31.5595 24.7602 31.7286C24.2813 31.8507 23.7929 31.907 23.2952 31.8788C22.9196 31.8601 22.5346 31.8037 22.159 31.738C21.5486 31.6253 20.9475 31.6347 20.3371 31.8319C20.2902 31.6441 20.2338 31.475 20.1869 31.2966C19.924 30.32 19.6704 29.3433 19.4075 28.3667C19.107 27.2492 18.8065 26.1317 18.5153 25.0236C18.506 24.9954 18.506 24.9579 18.5153 24.9391C18.7501 24.4038 18.9755 23.8685 19.2196 23.3426C19.5577 22.6196 20.1212 22.1406 20.8536 21.8589C20.9663 21.812 21.079 21.765 21.1917 21.7274C21.3513 21.6711 21.4546 21.7368 21.4828 21.9059C21.5673 22.413 21.896 22.6947 22.4125 22.7041C22.7787 22.7135 23.1262 22.629 23.4737 22.535C24.563 22.2439 25.6429 21.9434 26.7229 21.6523C27.2206 21.5208 27.7183 21.38 28.216 21.2767C28.7231 21.164 29.1175 21.3612 29.4086 21.7744C29.5964 22.0279 29.6997 22.3191 29.6809 22.629C29.6528 23.0515 29.8406 23.3426 30.1693 23.5774C30.451 23.7746 30.62 24.047 30.6764 24.385C30.7139 24.6104 30.6388 24.817 30.5731 25.0236C30.5167 25.2114 30.451 25.4086 30.4228 25.6058C30.3946 25.7655 30.4791 25.9157 30.5543 26.0566C30.6482 26.2256 30.7515 26.3852 30.836 26.5543C30.8923 26.667 30.9299 26.789 30.9675 26.9111C30.9769 26.9863 30.9769 27.0614 30.9769 27.1271Z" fill="white"/>
<path d="M14.5527 34.7618C14.4681 34.4613 14.3836 34.1608 14.3085 33.8603C14.0925 33.0339 13.8765 32.2075 13.6511 31.3811C13.3412 30.1979 13.0314 29.024 12.7121 27.8408C12.5618 27.2398 12.4022 26.6388 12.2425 26.0378C12.2331 26.0002 12.2237 25.9627 12.2144 25.9157C12.4116 25.8594 12.6088 25.8124 12.7966 25.7561C13.6417 25.5307 14.4869 25.2959 15.3321 25.0705C15.8298 24.9391 16.3181 24.7982 16.8158 24.6761C17.0506 24.6104 17.229 24.7231 17.2854 24.9578C17.5765 26.0472 17.8676 27.1365 18.1587 28.2352C18.4498 29.3339 18.7409 30.4233 19.0414 31.522C19.1635 31.9915 19.295 32.4517 19.4171 32.9212C19.4922 33.1935 19.3889 33.3626 19.1166 33.4377C17.7925 33.8227 16.459 34.2077 15.1349 34.5927C14.9471 34.6491 14.7592 34.7054 14.5714 34.7618C14.5714 34.7618 14.562 34.7618 14.5527 34.7618ZM17.5671 31.2403C17.5953 30.9022 17.2854 30.5078 16.8346 30.5078C16.4308 30.5078 16.1021 30.8458 16.1021 31.2496C16.1021 31.6441 16.4496 31.9915 16.844 31.9821C17.3041 31.9727 17.5859 31.5877 17.5671 31.2403Z" fill="white"/>
<path d="M23.0137 21.6805C23.0043 21.6147 22.9949 21.5678 22.9855 21.5208C22.9761 21.2485 22.9667 20.9762 22.9573 20.6944C22.9291 19.9714 22.901 19.2577 22.8728 18.5346C22.854 17.943 22.8259 17.3419 22.8071 16.7503C22.7977 16.3935 22.7789 16.0272 22.7695 15.6704C22.7601 15.3042 22.7413 14.9473 22.7319 14.5811C22.7226 14.2148 22.7038 13.8486 22.6944 13.4824C22.6756 12.9283 22.6568 12.3836 22.6286 11.8296C22.6286 11.7451 22.6099 11.6605 22.6099 11.5666C22.6099 11.3788 22.7601 11.2286 22.9385 11.238C23.1733 11.2474 23.4081 11.2849 23.6428 11.3131C23.9527 11.3507 24.272 11.3882 24.5819 11.4258C24.873 11.4633 25.1641 11.5009 25.4553 11.5385C25.8121 11.5854 26.1783 11.6324 26.5352 11.6793C26.892 11.7263 27.2395 11.7732 27.5963 11.8202C27.9438 11.8671 28.2913 11.9141 28.6481 11.9517C29.0143 11.9986 29.3712 12.0456 29.7374 12.0925C29.8126 12.1019 29.8877 12.1113 29.9628 12.1207C30.1694 12.1489 30.2915 12.3367 30.2633 12.5433C30.1694 13.1067 30.0755 13.6702 29.9816 14.2336C29.8783 14.844 29.775 15.445 29.6717 16.0554C29.5778 16.6095 29.4839 17.1635 29.3994 17.727C29.3336 18.112 29.2679 18.5064 29.2022 18.8914C29.127 19.3328 29.0519 19.7742 28.9768 20.2061C28.9674 20.2531 28.958 20.3094 28.9486 20.347C28.7138 20.3376 28.4791 20.3282 28.2349 20.3188C28.526 18.5064 28.8171 16.6846 29.1083 14.8628C28.6199 14.6938 28.2349 14.4214 27.9814 13.9707C27.7278 13.5387 27.6621 13.0598 27.6996 12.5621C26.8263 12.4494 25.9717 12.3461 25.1078 12.2334C25.1078 12.5996 25.0233 12.9189 24.8449 13.2194C24.5819 13.6702 24.2157 13.9988 23.7086 14.1397C23.6522 14.1585 23.5865 14.1773 23.5302 14.1773C23.4362 14.1773 23.4269 14.2242 23.4362 14.29C23.455 14.8722 23.4832 15.445 23.502 16.0272C23.5114 16.3747 23.5302 16.7316 23.5395 17.079C23.5771 17.9054 23.6053 18.7224 23.6428 19.5488C23.6616 20.0371 23.671 20.5254 23.6898 21.0137C23.6992 21.164 23.7086 21.3142 23.7086 21.4739C23.7086 21.502 23.6804 21.549 23.6522 21.5584C23.4456 21.5866 23.239 21.6335 23.0137 21.6805Z" fill="white"/>
<path d="M21.6894 12.6372C21.6988 12.6748 21.7082 12.7029 21.7082 12.7311C21.7175 12.9001 21.7175 13.0786 21.7269 13.2476C21.7269 13.3227 21.7175 13.3697 21.6236 13.3791C21.4922 13.3979 21.3701 13.426 21.2386 13.4542C21.2011 13.4636 21.1729 13.473 21.1353 13.4824C21.1729 13.6138 21.2198 13.7359 21.2574 13.8674C21.3325 14.1679 21.3419 14.4778 21.2292 14.7783C21.1071 15.1164 20.8536 15.3324 20.5343 15.4826C20.5249 15.4826 20.5155 15.492 20.4967 15.5014C20.5531 15.6516 20.6 15.8019 20.6564 15.9521C20.8536 16.4874 21.0414 17.0133 21.2386 17.5486C21.464 18.159 21.6894 18.7694 21.9054 19.3798C21.9429 19.4737 21.9523 19.577 21.9617 19.6709C21.9805 20.1028 21.9993 20.5442 22.018 20.9762C21.8584 20.9105 21.7082 20.8447 21.5579 20.779C21.5297 20.7696 21.5109 20.732 21.5016 20.7039C21.417 20.3564 21.3419 19.9995 21.248 19.6615C21.1823 19.4455 21.0884 19.2389 21.0038 19.0229C20.478 17.727 19.9709 16.4405 19.4638 15.1445C19.2666 14.6468 19.0694 14.1585 18.8815 13.6608C18.7876 13.4166 18.9097 13.21 19.1727 13.1631C19.9803 12.9941 20.7785 12.825 21.5861 12.6654C21.6142 12.6466 21.6424 12.6466 21.6894 12.6372Z" fill="white"/>
<path d="M26.0844 17.4923C26.723 17.5111 27.2489 17.7458 27.6057 18.2905C27.9062 18.7506 27.878 19.4268 27.5588 19.8681C26.9578 20.7039 25.6994 20.8354 24.92 20.1874C24.6007 19.9245 24.3941 19.5958 24.3659 19.1638C24.319 18.5347 24.6007 18.0839 25.1078 17.7552C25.3989 17.5674 25.7276 17.4829 26.0844 17.4923Z" fill="white"/>
<path d="M17.567 31.2403C17.5858 31.5877 17.3041 31.9634 16.8439 31.9822C16.4495 31.9915 16.1021 31.6441 16.1021 31.2497C16.1021 30.8459 16.4307 30.5078 16.8345 30.5078C17.2853 30.5078 17.5858 30.9022 17.567 31.2403Z" fill="#C30209"/>
</g>
</g>
<defs>
<clipPath id="clip0_415_79">
<rect width="44" height="44" fill="white"/>
</clipPath>
<clipPath id="clip1_415_79">
<rect width="18.7627" height="23.5238" fill="white" transform="translate(12.2144 11.238)"/>
</clipPath>
</defs>
</svg>
