<svg width="44" height="44" viewBox="0 0 44 44" fill="none" xmlns="http://www.w3.org/2000/svg">
<g clip-path="url(#clip0_1857_9)">
<path d="M41.1274 9.66704C41.1274 11.4182 41.1337 13.1678 41.1259 14.919C41.1133 17.5151 39.3888 19.2569 36.8069 19.2632C33.2935 19.2726 29.7801 19.2742 26.2667 19.2632C23.743 19.2553 21.9729 17.5671 21.9399 15.0355C21.8943 11.456 21.8958 7.87495 21.9399 4.29547C21.9698 1.77804 23.6612 0.0724802 26.1786 0.0378655C29.7502 -0.0124831 33.3234 -0.0140565 36.895 0.0378655C39.4707 0.075627 41.118 1.83626 41.1274 4.41505C41.1337 6.16624 41.1274 7.91586 41.1274 9.66704ZM24.687 9.64502C24.687 10.8644 24.687 12.0838 24.687 13.3047C24.687 13.3441 24.687 13.3834 24.687 13.4227C24.7452 15.2982 25.9064 16.505 27.7489 16.5255C30.2805 16.5522 32.8136 16.5554 35.3452 16.5255C37.0665 16.505 38.3347 15.3627 38.374 13.7044C38.4369 11.0107 38.4306 8.31393 38.374 5.62027C38.3425 4.09251 37.2679 2.90617 35.7653 2.8511C33.0229 2.75197 30.271 2.7205 27.5286 2.81963C25.7302 2.88414 24.7358 4.07362 24.6918 5.87044C24.6603 7.12916 24.6855 8.38787 24.6855 9.64816L24.687 9.64502Z" fill="#C30209"/>
<path d="M9.57764 41.2435C7.87051 41.2435 6.16337 41.2498 4.45624 41.2435C1.72011 41.2324 0.0161181 39.5253 0.00982456 36.7782C0.00195758 33.3167 -0.00118921 29.8552 0.011398 26.3938C0.0192649 24.2539 1.14896 22.7057 3.09368 22.1786C3.5594 22.0528 4.06132 22.0119 4.5475 22.0103C7.92243 21.9961 11.2989 21.9993 14.6739 22.004C17.506 22.0087 19.2005 23.7237 19.2005 26.5731C19.2005 29.9748 19.2021 33.3781 19.2005 36.7797C19.199 39.5237 17.5013 41.2309 14.7604 41.2419C13.0328 41.2498 11.3068 41.2419 9.57922 41.2419L9.57764 41.2435ZM9.57764 38.5089C10.8143 38.5089 12.051 38.5089 13.2877 38.5089C13.327 38.5089 13.3664 38.5089 13.4057 38.5089C15.1947 38.4617 16.4266 37.2958 16.4534 35.5147C16.4927 32.9186 16.4927 30.321 16.4518 27.7249C16.4251 26.0272 15.3221 24.8503 13.6118 24.8015C10.9638 24.7244 8.31263 24.7212 5.66461 24.7936C3.86936 24.8424 2.78057 26.0209 2.74911 27.8413C2.70662 30.3587 2.7082 32.8777 2.74753 35.3952C2.77743 37.3226 4.00782 38.4916 5.92579 38.5089C7.14203 38.5199 8.35983 38.5105 9.57764 38.5105V38.5089Z" fill="#C30209"/>
<path d="M9.57392 19.2663C7.84633 19.2663 6.12032 19.271 4.39273 19.2663C1.77775 19.2584 0.0234111 17.5309 0.0108239 14.9143C-0.00491005 11.4135 -0.00491005 7.91269 0.0108239 4.41346C0.0234111 1.81264 1.72425 0.0583047 4.31563 0.0331304C7.84791 -0.00148432 11.3802 -0.00620451 14.9124 0.0331304C17.5117 0.0630249 19.1952 1.82523 19.2 4.41818C19.2047 7.91899 19.2062 11.4198 19.2 14.9206C19.1952 17.501 17.4503 19.2506 14.8747 19.2632C13.1093 19.2726 11.3424 19.2647 9.57549 19.2647L9.57392 19.2663ZM16.4638 9.62927C16.4638 8.38943 16.4748 7.15117 16.4607 5.91134C16.4434 4.15385 15.449 2.90458 13.7167 2.83377C10.9947 2.72206 8.26171 2.72049 5.53816 2.82905C3.79012 2.89828 2.77371 4.10036 2.74538 5.86728C2.70605 8.38471 2.70448 10.9037 2.74538 13.4212C2.77685 15.3486 4.01197 16.5207 5.93151 16.5302C8.38443 16.5412 10.8389 16.5428 13.2934 16.5302C15.2366 16.5192 16.4449 15.2982 16.4607 13.3488C16.4701 12.1089 16.4622 10.8707 16.4622 9.63084L16.4638 9.62927Z" fill="#C30209"/>
<path d="M37.2436 39.3886C32.6147 42.6204 27.0024 41.3538 24.057 37.6374C21.003 33.7857 21.2925 28.389 24.7052 24.8866C28.0912 21.4141 33.5493 21.0538 37.4623 24.081C41.1267 26.9163 42.5979 32.5852 39.2717 37.3668C40.5965 38.6947 41.9307 40.0211 43.2493 41.3632C43.4774 41.5945 43.6961 41.8761 43.8047 42.1751C44.0155 42.7541 43.7685 43.3787 43.2713 43.7375C42.7914 44.0836 42.1148 44.0962 41.6255 43.7107C41.2573 43.4196 40.9332 43.0735 40.5997 42.7415C39.4857 41.6338 38.3764 40.523 37.242 39.3886H37.2436ZM24.6942 31.5452C24.5982 35.2647 27.616 38.3974 31.3953 38.4981C35.14 38.5988 38.2868 35.5778 38.3969 31.7781C38.5055 28.0114 35.4861 24.8835 31.6282 24.767C27.9149 24.6553 24.7949 27.7046 24.6958 31.5452H24.6942Z" fill="#C30209"/>
</g>
<defs>
<clipPath id="clip0_1857_9">
<rect width="43.882" height="44" fill="white"/>
</clipPath>
</defs>
</svg>
