<svg width="22" height="19" viewBox="0 0 22 19" fill="none" xmlns="http://www.w3.org/2000/svg">
<g clip-path="url(#clip0_460_77)">
<path d="M15.5602 11.8931C16.4384 11.817 17.3237 11.7852 18.1936 11.6507C18.8854 11.544 19.5046 11.2214 19.8839 10.5815C20.5479 9.4615 20.1575 8.095 19.0045 7.47692C18.3964 7.15078 17.7406 6.99744 17.0571 6.9532C16.5062 6.91723 16.311 6.73499 16.2373 6.19004C16.0208 4.59471 15.3627 3.24354 14.0345 2.27749C11.8317 0.675084 7.99052 0.941071 6.57211 4.19897C6.30082 4.82118 5.97645 5.08658 5.31531 5.14437C4.48786 5.21692 3.70641 5.51003 3.03054 6.01841C1.38035 7.25812 1.43579 9.78941 3.12785 10.9731C4.03551 11.6083 5.05994 11.8129 6.1404 11.8212C6.88705 11.8271 7.63429 11.8176 8.38095 11.8235C8.74896 11.8265 9.02969 12.096 9.04562 12.4404C9.06095 12.7849 8.80617 13.124 8.44936 13.1222C7.04806 13.1169 5.63438 13.2685 4.25372 12.9058C2.82589 12.5307 1.64398 11.7929 0.976951 10.4287C-0.184899 8.05077 0.844842 5.38441 3.31717 4.35349C3.86506 4.12525 4.45542 3.99137 5.03458 3.84806C5.22095 3.80205 5.31295 3.72833 5.39316 3.5632C6.28667 1.7237 7.72335 0.565976 9.73329 0.137212C13.0018 -0.559898 16.3511 1.46656 17.2546 4.68789C17.3237 4.93323 17.3962 5.17917 17.4416 5.42923C17.4752 5.61206 17.5537 5.68519 17.7424 5.71114C18.459 5.80905 19.1431 6.02313 19.7653 6.39646C21.0463 7.16552 21.6225 8.31145 21.4792 9.79118C21.337 11.2562 20.5314 12.257 19.1543 12.7259C18.4855 12.9535 17.7607 13.078 17.0541 13.1187C15.9277 13.1824 14.7947 13.1393 13.6647 13.1364C13.3462 13.1352 13.092 12.9512 13.0077 12.6828C12.9222 12.4115 13.0107 12.1025 13.256 11.9562C13.3828 11.8802 13.5485 11.8383 13.6983 11.8353C14.317 11.8224 14.9363 11.83 15.5555 11.83C15.5573 11.8518 15.5596 11.8731 15.5614 11.8949L15.5602 11.8931Z" fill="white"/>
<path d="M10.3481 16.1133C10.3481 15.9499 10.3481 15.8461 10.3481 15.7423C10.3487 13.1479 10.3511 10.5541 10.3487 7.95966C10.3487 7.64236 10.462 7.40056 10.7639 7.28201C11.0234 7.17998 11.29 7.20888 11.4634 7.43004C11.5749 7.57218 11.6545 7.78037 11.6563 7.96025C11.6716 9.38514 11.6645 10.8094 11.6645 12.2343C11.6645 13.51 11.6645 14.7863 11.6645 16.1103C11.743 16.0448 11.799 16.0047 11.8473 15.957C12.2732 15.5353 12.6948 15.1095 13.123 14.6901C13.4385 14.3805 13.8142 14.3652 14.0891 14.6406C14.368 14.9196 14.3627 15.2982 14.056 15.6072C13.225 16.4435 12.3917 17.2775 11.5519 18.1049C11.1667 18.4847 10.8318 18.4741 10.4567 18.0996C9.67108 17.3152 8.88492 16.5314 8.09934 15.7464C8.02975 15.6768 7.95898 15.6084 7.89705 15.5323C7.66468 15.2439 7.68355 14.8736 7.93892 14.6294C8.19488 14.3846 8.57234 14.377 8.84186 14.6359C9.28773 15.0646 9.72062 15.5076 10.16 15.944C10.2054 15.9888 10.2544 16.0295 10.3481 16.1138V16.1133Z" fill="white"/>
</g>
<defs>
<clipPath id="clip0_460_77">
<rect width="21" height="18.3844" fill="white" transform="translate(0.5)"/>
</clipPath>
</defs>
</svg>
