<svg width="24" height="24" viewBox="0 0 24 24" fill="none" xmlns="http://www.w3.org/2000/svg">
<g clip-path="url(#clip0_154_175)">
<path d="M14.7783 15.107H13.8905C13.0656 15.1177 12.2658 15.3921 11.608 15.8901C10.9503 16.3881 10.4692 17.0835 10.2352 17.8746C10.1865 18.0383 10.0916 18.1845 9.96198 18.2957C9.8323 18.4068 9.67332 18.4782 9.5041 18.5013C8.3937 18.6622 7.26226 18.5978 6.17729 18.3119C5.09231 18.026 4.07603 17.5245 3.18907 16.8374C2.3021 16.1502 1.56263 15.2915 1.01475 14.3123C0.466875 13.3332 0.121826 12.2537 0.00018318 11.1383C-0.164268 9.42587 0.203896 7.70442 1.0544 6.20904C1.9049 4.71365 3.19627 3.51724 4.75214 2.78323C6.28269 2.07784 7.99166 1.85491 9.65194 2.14406C11.3122 2.43321 12.8452 3.2208 14.0472 4.40208C14.4731 4.8497 14.874 5.32036 15.2482 5.81197C11.2796 7.74409 11.0707 12.8094 14.7783 15.107Z" fill="#C30209"/>
<path d="M23.551 22H10.9139C10.853 20.7469 10.8705 19.4912 10.9661 18.2403C11.0893 17.586 11.44 16.9965 11.9561 16.576C12.4722 16.1555 13.1204 15.9311 13.786 15.9426C16.0836 15.873 18.3813 15.873 20.6789 15.9426C21.4238 15.9677 22.1321 16.2713 22.6638 16.7935C23.1956 17.3156 23.5122 18.0182 23.551 18.7625C23.6032 19.8591 23.551 20.9034 23.551 22Z" fill="#C30209"/>
<path d="M17.2325 6.282C17.8036 6.27499 18.3704 6.38233 18.8994 6.59766C19.4284 6.81299 19.909 7.13198 20.3129 7.53585C20.7167 7.93972 21.0357 8.4203 21.251 8.94931C21.4664 9.47833 21.5737 10.045 21.5667 10.6162C21.5667 11.1829 21.4543 11.7441 21.2358 12.267C21.0174 12.79 20.6973 13.2643 20.2941 13.6626C19.891 14.0609 19.4127 14.3753 18.8872 14.5874C18.3616 14.7995 17.7992 14.9051 17.2325 14.8982C16.6614 14.9052 16.0946 14.7979 15.5656 14.5825C15.0366 14.3672 14.556 14.0482 14.1521 13.6443C13.7483 13.2405 13.4293 12.7599 13.2139 12.2309C12.9986 11.7019 12.8913 11.1351 12.8983 10.564C12.8911 9.99522 12.9987 9.4309 13.2146 8.90469C13.4305 8.37849 13.7504 7.90124 14.155 7.50149C14.5596 7.10174 15.0407 6.78769 15.5695 6.57815C16.0983 6.36862 16.6639 6.26791 17.2325 6.282Z" fill="#C30209"/>
<path d="M4.3862 6.75198V6.54309C4.3862 6.43866 4.33398 6.38644 4.33398 6.282C4.33398 6.17756 4.3862 6.12534 4.3862 6.0209V5.81201H10.0781C10.0781 5.86423 10.1303 5.96868 10.1303 6.0209V6.75198H4.3862ZM4.3862 8.89296C4.3862 8.73631 4.33398 8.57964 4.33398 8.42298C4.33398 8.26632 4.3862 8.26631 4.3862 8.21409V7.95299H10.0781C10.0781 8.00521 10.1303 8.10966 10.1303 8.16188V8.68407C10.1303 8.73629 10.0781 8.84074 10.0781 8.89296H4.3862ZM5.58725 10.9295H4.80396C4.81441 10.7853 4.84974 10.6439 4.9084 10.5118C4.95779 10.3794 5.02833 10.256 5.11727 10.1462C6.005 10.1462 6.57942 10.0418 6.94495 9.72846C7.13044 9.5804 7.27555 9.38793 7.36683 9.16885C7.45812 8.94977 7.49262 8.71115 7.46714 8.47518C7.49892 8.02718 7.36925 7.58258 7.10161 7.22191C6.78258 6.94695 6.37391 6.79838 5.95278 6.80419H5.11727V6.43862H6.5272C6.97209 6.41771 7.41652 6.48883 7.83268 6.64751C8.15122 6.82709 8.40654 7.10065 8.56375 7.4308C8.76091 7.76102 8.85204 8.14375 8.82485 8.52739C8.84763 8.99066 8.71935 9.4488 8.45931 9.83287C8.20255 10.222 7.8403 10.5299 7.41493 10.7206C6.95231 10.9129 6.45335 11.002 5.95278 10.9817L5.58725 10.9295ZM8.40709 14.1149C8.28192 14.1218 8.15671 14.1021 8.0397 14.0571C7.92269 14.0121 7.81654 13.9428 7.72824 13.8538L7.20605 13.3316L4.80396 10.8773L5.95278 10.6162L6.57942 10.9295L7.15383 11.5039L8.25043 12.6527L8.77263 13.0705L9.34704 13.2794C9.27265 13.4858 9.16698 13.6795 9.03372 13.8538C8.96138 13.9485 8.86538 14.0225 8.75539 14.0683C8.64539 14.1141 8.52527 14.1302 8.40709 14.1149Z" fill="white"/>
</g>
<defs>
<clipPath id="clip0_154_175">
<rect width="23.6031" height="20" fill="white" transform="translate(0 2)"/>
</clipPath>
</defs>
</svg>
