<svg width="32" height="32" viewBox="0 0 32 32" fill="none" xmlns="http://www.w3.org/2000/svg">
<g clip-path="url(#clip0_1907_13)">
<path d="M28.993 21.2889C28.993 21 28.9337 20.7037 28.83 20.4296C28.0226 18.2074 27.193 16 26.3856 13.7778C26.2745 13.4741 26.2152 13.1407 26.2152 12.8148C26.2004 9.79259 26.2078 6.76296 26.2078 3.74074C26.2078 3.06667 26.1411 3 25.4597 3H6.57818C5.83743 3 5.8004 3.04444 5.8004 3.80741C5.79299 6.78519 5.8004 9.75556 5.78558 12.7333C5.78558 13.1037 5.72632 13.4889 5.6004 13.837C4.80781 16.0148 3.99299 18.1778 3.2004 20.3481C3.08188 20.6815 3.01521 21.0519 3.00781 21.4074C2.99299 23.6741 3.00781 25.9407 3.00781 28.2C3.00781 28.9556 3.05225 29 3.8004 29H28.2893C28.9411 29 29.0078 28.9333 29.0078 28.2889C29.0078 25.9556 29.0152 23.6222 29.0004 21.2889H28.993ZM25.3485 20.5407C23.4152 20.9333 22.2226 22.0667 21.8448 24.0667C21.6819 24.0741 21.5189 24.0889 21.3485 24.0889C17.793 24.0889 14.23 24.0889 10.6671 24.0889C10.3189 24.0889 10.1485 24.0519 10.0448 23.6296C9.67447 22.0667 8.68188 21.0741 7.11892 20.6593C7.0078 20.6296 6.88929 20.6 6.77077 20.5704C6.74114 20.5704 6.71151 20.5407 6.65966 20.5111V3.86667H25.3485V20.5407Z" fill="#C30209"/>
<path d="M20.1556 9.41487C20.163 11.6964 18.3037 13.5852 16.0223 13.6001C13.7482 13.6149 11.8593 11.7408 11.8519 9.45932C11.8371 7.16302 13.6815 5.30376 15.9778 5.29635C18.2741 5.28154 20.1408 7.12598 20.1556 9.41487Z" fill="#C30209"/>
<path d="M10 16.0593V15.2889H22V16.0593H10Z" fill="#C30209"/>
<path d="M22 17.3704V18.1407H10V17.3704H22Z" fill="#C30209"/>
<path d="M17.5039 19.4445V20.2H10.0076V19.4445H17.5039Z" fill="#C30209"/>
<path d="M14.6592 9.20743H15.111C15.711 9.20743 16.0518 8.94817 16.0518 8.40002C16.0518 7.85187 15.711 7.69632 15.111 7.69632H14.6592V7.0741H17.2592V7.48891H16.3407C16.637 7.6741 16.8147 7.99262 16.8147 8.39262C16.8147 9.38521 16.111 9.82224 15.2073 9.82224H14.6666V9.20002L14.6592 9.20743ZM14.6592 8.20002L15.1407 8.16299H17.2592V8.5778H14.6592V8.20002ZM15.0518 9.6815L15.5851 9.30373L17.0962 11.3482H16.2221L15.0444 9.68891L15.0518 9.6815Z" fill="white"/>
</g>
<defs>
<clipPath id="clip0_1907_13">
<rect width="26" height="26" fill="white" transform="translate(3 3)"/>
</clipPath>
</defs>
</svg>
