<svg width="32" height="32" viewBox="0 0 32 32" fill="none" xmlns="http://www.w3.org/2000/svg">
<path d="M5.81216 21.2475C5.7544 21.0878 5.70343 20.9316 5.63888 20.7787C5.47919 20.395 5.3195 20.0112 5.14282 19.6308C5.10545 19.5492 5.01371 19.4643 4.92537 19.4338C4.0148 19.1009 3.10424 18.7783 2.19027 18.4624C2.05097 18.4148 2 18.3469 2 18.1941C2.0068 16.7268 2.0034 15.263 2 13.7957C2 13.6565 2.04077 13.5852 2.17668 13.5376C3.09064 13.2217 4.00121 12.8923 4.91518 12.573C5.0375 12.5289 5.10885 12.4643 5.15981 12.3387C5.35348 11.853 5.56413 11.3741 5.7544 10.885C5.78498 10.8069 5.78158 10.688 5.74421 10.6099C5.33309 9.72683 4.91518 8.84716 4.49047 7.97089C4.42252 7.83163 4.44291 7.75691 4.54823 7.65163C5.58791 6.61912 6.62759 5.58321 7.65708 4.54391C7.76581 4.43522 7.84055 4.42504 7.97646 4.49296C8.84626 4.91412 9.72285 5.32848 10.5994 5.73605C10.6878 5.77681 10.8203 5.7802 10.9086 5.74284C11.3843 5.55944 11.8498 5.35226 12.3254 5.16545C12.4647 5.11111 12.5327 5.0262 12.5803 4.89034C12.8963 3.9903 13.219 3.09025 13.5316 2.1902C13.5826 2.04755 13.6505 2 13.8034 2C15.2644 2.00679 16.722 2.00679 18.183 2C18.3427 2 18.414 2.05434 18.465 2.20039C18.781 3.10723 19.1071 4.01067 19.4265 4.91752C19.4707 5.04318 19.5386 5.11111 19.661 5.15866C20.1196 5.34546 20.5783 5.53227 21.0302 5.73945C21.2035 5.81756 21.3394 5.787 21.4957 5.71228C22.3655 5.28772 23.2387 4.86657 24.1119 4.4556C24.1594 4.43183 24.2716 4.47598 24.3191 4.52353C25.1991 5.39641 26.0757 6.27608 26.9523 7.15235C27.129 7.32897 27.3057 7.51237 27.4891 7.68559C27.5673 7.76031 27.5809 7.81805 27.5299 7.92334C27.1018 8.8064 26.6873 9.69626 26.2592 10.5793C26.2014 10.6982 26.198 10.7933 26.249 10.9156C26.4563 11.3979 26.6499 11.8836 26.8572 12.3624C26.8912 12.4406 26.9761 12.5221 27.0542 12.5526C27.9716 12.8821 28.889 13.2082 29.8131 13.5206C29.9932 13.5818 30 13.687 30 13.8467C29.9932 15.28 29.9932 16.7132 30 18.1465C30 18.3367 29.9388 18.4182 29.7588 18.4794C28.8618 18.7885 27.9716 19.1111 27.078 19.4236C26.9523 19.4677 26.8844 19.5391 26.8368 19.6579C26.6465 20.13 26.4529 20.6021 26.2524 21.0742C26.2014 21.1931 26.198 21.2882 26.2592 21.4071C26.6873 22.2901 27.1018 23.18 27.5265 24.0631C27.5741 24.1616 27.5707 24.2193 27.4891 24.3008C26.4257 25.3571 25.3656 26.4168 24.3089 27.4833C24.2206 27.5716 24.156 27.5682 24.0541 27.5206C23.1639 27.0927 22.2704 26.6681 21.3768 26.2504C21.3054 26.2164 21.1933 26.2096 21.122 26.2402C20.6361 26.4304 20.1536 26.6409 19.6678 26.8345C19.5386 26.8855 19.4673 26.9602 19.4231 27.0927C19.1071 27.9995 18.7776 28.903 18.4616 29.8098C18.414 29.9491 18.3461 30 18.1932 30C16.7866 29.9932 15.3799 29.9966 13.9733 29.9966C13.7264 29.9966 13.5611 29.8789 13.4772 29.6434C13.1715 28.7875 12.8725 27.9316 12.5565 27.0791C12.5225 26.9874 12.4308 26.8923 12.3424 26.8549C11.8634 26.6443 11.3775 26.444 10.8916 26.2538C10.8067 26.2198 10.681 26.2232 10.5994 26.2606C9.70926 26.6749 8.82247 27.0961 7.93908 27.5206C7.82356 27.575 7.75901 27.5648 7.66727 27.4731C6.6242 26.4236 5.57772 25.3775 4.52785 24.3348C4.42592 24.2329 4.41573 24.1582 4.47688 24.0291C4.8846 23.197 5.28213 22.3581 5.68305 21.5226C5.72722 21.4343 5.7578 21.3392 5.79857 21.2475H5.81216ZM8.19731 6.67346C8.15993 6.70403 8.11236 6.73799 8.07159 6.77875C7.64349 7.2033 7.22218 7.63464 6.78728 8.0558C6.68875 8.1509 6.67856 8.22562 6.73972 8.34789C7.09307 9.07472 7.44303 9.80495 7.7794 10.5386C7.82017 10.6269 7.83036 10.7627 7.79299 10.851C7.39206 11.8462 6.97415 12.8345 6.56644 13.8297C6.51547 13.952 6.44072 14.0131 6.31841 14.0573C5.55394 14.3222 4.79626 14.6007 4.03179 14.8656C3.91627 14.9064 3.86191 14.9573 3.86531 15.0898C3.8721 15.7011 3.8721 16.3091 3.86531 16.9204C3.86531 17.0427 3.90608 17.0902 4.0216 17.131C4.79286 17.3993 5.55733 17.6778 6.3252 17.9461C6.44752 17.9903 6.51887 18.0548 6.56983 18.1771C6.97755 19.1722 7.39206 20.1606 7.79638 21.1557C7.83036 21.2407 7.82696 21.3663 7.78619 21.4478C7.44982 22.1747 7.11006 22.9015 6.75331 23.6215C6.67176 23.7846 6.71253 23.8661 6.82466 23.9748C7.24257 24.3823 7.65708 24.7933 8.0614 25.2145C8.15653 25.313 8.23128 25.3231 8.3536 25.2654C9.08069 24.9122 9.81119 24.5657 10.5451 24.2261C10.63 24.1887 10.7557 24.1718 10.8373 24.2057C11.8328 24.6065 12.8215 25.0243 13.817 25.4284C13.9461 25.4794 14.0175 25.5507 14.065 25.6832C14.3267 26.4406 14.6019 27.1946 14.8669 27.952C14.9111 28.0844 14.9722 28.1388 15.1183 28.1354C15.7163 28.1286 16.3109 28.1286 16.9089 28.1354C17.0516 28.1354 17.1025 28.081 17.1467 27.9588C17.4083 27.2081 17.6767 26.4609 17.9384 25.7103C17.9859 25.5779 18.0505 25.4862 18.1898 25.4284C19.1717 25.0311 20.1536 24.6269 21.1321 24.2159C21.2579 24.1616 21.3598 24.1616 21.4855 24.2227C22.2058 24.5725 22.9363 24.9088 23.6566 25.262C23.7891 25.3265 23.8672 25.3062 23.9658 25.2077C24.3837 24.7797 24.805 24.3586 25.2331 23.9408C25.3316 23.8423 25.335 23.771 25.2773 23.6521C24.9307 22.9355 24.5943 22.2154 24.2478 21.4988C24.1798 21.3629 24.1764 21.2475 24.2342 21.1048C24.6453 20.1266 25.0428 19.1451 25.4573 18.1703C25.4981 18.0786 25.6068 17.9869 25.7054 17.9495C26.4631 17.671 27.2275 17.3993 27.992 17.1344C28.1143 17.0902 28.1517 17.0291 28.1517 16.9034C28.1449 16.3193 28.1415 15.7351 28.1517 15.1543C28.1551 14.9743 28.0939 14.8996 27.9342 14.8452C27.1766 14.5837 26.4223 14.3154 25.668 14.0403C25.5933 14.0131 25.5049 13.9452 25.4743 13.8738C25.053 12.8787 24.6453 11.8802 24.2274 10.8816C24.173 10.7559 24.173 10.6507 24.2342 10.525C24.5875 9.79816 24.9307 9.06453 25.2807 8.3377C25.3282 8.23581 25.3384 8.16788 25.2467 8.07957C24.805 7.64823 24.3701 7.21349 23.9386 6.77196C23.8537 6.68704 23.7891 6.67686 23.6838 6.7312C22.9567 7.08443 22.2228 7.42746 21.4957 7.78069C21.3734 7.84182 21.268 7.84522 21.1389 7.79088C20.1536 7.37652 19.1683 6.97574 18.183 6.55798C18.0946 6.52062 18.0029 6.42212 17.9689 6.33382C17.6903 5.58321 17.4219 4.82581 17.1603 4.06841C17.1093 3.92237 17.0482 3.86123 16.8817 3.86463C16.2973 3.87821 15.7129 3.87482 15.1285 3.86463C14.9892 3.86463 14.9178 3.90199 14.8703 4.04124C14.6053 4.80543 14.3301 5.56623 14.0616 6.32702C14.0175 6.4493 13.9495 6.52062 13.8306 6.56817C12.8419 6.97234 11.8566 7.37991 10.8747 7.79427C10.7523 7.84522 10.6538 7.83843 10.5383 7.78069C9.81119 7.42746 9.0773 7.08443 8.3468 6.73799C8.30603 6.71761 8.26186 6.70063 8.2041 6.67346H8.19731Z" fill="#C30209"/>
<path d="M15.9984 19.5C14.0581 19.4904 12.4873 17.9197 12.5001 15.9888C12.5128 14.0421 14.0868 12.4936 16.0112 12.5C17.9674 12.5064 19.5127 14.0835 19.4999 16.0526C19.4904 17.942 17.9005 19.5064 15.9952 19.5H15.9984ZM15.9984 17.7508C16.9606 17.7508 17.7539 16.9574 17.7539 15.9888C17.7539 15.0489 16.9638 14.2556 16.0175 14.246C15.0617 14.2365 14.2524 15.0394 14.2492 15.9984C14.2492 16.9479 15.0458 17.7476 15.9984 17.7508Z" fill="#C30209"/>
</svg>
