<svg width="20" height="24" viewBox="0 0 20 24" fill="none" xmlns="http://www.w3.org/2000/svg">
<g clip-path="url(#clip0_817_2445)">
<path d="M12.5551 0C13.2004 0.109529 13.8023 0.325458 14.322 0.725395C15.7146 2.31138 17.6907 3.74464 19.0234 5.34001C19.4398 5.83821 19.7197 6.59365 19.7644 7.2358V21.3413C19.6585 22.7482 18.5356 23.8517 17.1124 23.9856C12.1463 23.9368 7.1586 24.0882 2.20467 23.9086C0.953591 23.6019 0.0831937 22.5592 -0.000976562 21.2949L0.00284936 2.60116C0.101686 1.31748 1.2163 0.13832 2.53178 0H12.5551ZM2.66441 1.04397C1.7717 1.15475 1.13532 1.8163 1.05306 2.69504L1.05051 21.2486C1.12831 22.2137 1.8157 22.8759 2.79258 22.9585H16.9721C17.7711 22.8966 18.4183 22.4002 18.6434 21.6473C18.7582 16.7435 18.7594 11.7897 18.6434 6.88593C18.5509 6.56986 18.4329 6.29072 18.2276 6.0291C16.6883 4.69786 15.2664 2.82835 13.7022 1.56971C13.3011 1.24738 12.8159 1.06525 12.2955 1.02957L2.66505 1.04459L2.66441 1.04397Z" fill="#F7464C"/>
<path d="M2.66468 1.04383L12.2952 1.02881C12.8148 1.06448 13.3007 1.24661 13.7018 1.56894C15.266 2.82759 16.6886 4.69709 18.2273 6.02834C18.4326 6.29058 18.5505 6.5691 18.643 6.88517C18.7597 11.7889 18.7584 16.7428 18.643 21.6466C18.4179 22.3995 17.7707 22.8958 16.9717 22.9578H2.79285C1.81597 22.8752 1.12857 22.213 1.05078 21.2479L1.05333 2.69428C1.13559 1.81554 1.77261 1.15398 2.66468 1.0432V1.04383ZM5.09669 6.89769C4.52472 7.06918 4.55086 7.78268 5.13686 7.91474L9.90779 7.91912C10.5474 7.84339 10.5773 7.02098 9.95115 6.89018L5.09669 6.89769ZM5.09669 11.4885C4.50686 11.6537 4.55979 12.4361 5.18022 12.5093H14.5856C15.2469 12.4311 15.2469 11.5549 14.5856 11.4766L5.09733 11.4885H5.09669ZM5.09669 16.08C4.50686 16.2452 4.55979 17.0276 5.18022 17.1008H14.5856C15.2469 17.0226 15.2469 16.1463 14.5856 16.0681L5.09733 16.08H5.09669Z" fill="white"/>
<path d="M5.09678 11.4885L14.5851 11.4766C15.2463 11.5548 15.2463 12.431 14.5851 12.5093H5.17967C4.55924 12.436 4.50631 11.6531 5.09614 11.4885H5.09678Z" fill="#F7464C"/>
<path d="M5.09678 16.0803L14.5851 16.0684C15.2463 16.1466 15.2463 17.0228 14.5851 17.1011H5.17967C4.55924 17.0278 4.50631 16.2449 5.09614 16.0803H5.09678Z" fill="#F7464C"/>
<path d="M5.0969 6.89765L9.95135 6.89014C10.5769 7.02032 10.5476 7.84335 9.90799 7.91908L5.13707 7.9147C4.5517 7.78264 4.52492 7.06914 5.0969 6.89765Z" fill="#F7464C"/>
</g>
<defs>
<clipPath id="clip0_817_2445">
<rect width="19.7647" height="24" fill="white"/>
</clipPath>
</defs>
</svg>
