<svg width="16" height="16" viewBox="0 0 16 16" fill="none" xmlns="http://www.w3.org/2000/svg">
<path d="M2.66671 2.66699H13.3334C14.0667 2.66699 14.6667 3.26699 14.6667 4.00033V12.0003C14.6667 12.7337 14.0667 13.3337 13.3334 13.3337H2.66671C1.93337 13.3337 1.33337 12.7337 1.33337 12.0003V4.00033C1.33337 3.26699 1.93337 2.66699 2.66671 2.66699Z" fill="#2B9EE6"/>
<path d="M14.6667 4.00033L8.00004 8.66699L1.33337 4.00033" fill="#2B9EE6"/>
<path d="M14.6667 4.00033C14.6667 3.26699 14.0667 2.66699 13.3334 2.66699H2.66671C1.93337 2.66699 1.33337 3.26699 1.33337 4.00033M14.6667 4.00033V12.0003C14.6667 12.7337 14.0667 13.3337 13.3334 13.3337H2.66671C1.93337 13.3337 1.33337 12.7337 1.33337 12.0003V4.00033M14.6667 4.00033L8.00004 8.66699L1.33337 4.00033" stroke="white" stroke-linecap="round" stroke-linejoin="round"/>
</svg>
