<svg width="10" height="10" viewBox="0 0 10 10" fill="none" xmlns="http://www.w3.org/2000/svg">
<g clip-path="url(#clip0_588_2001)">
<path d="M2.01438 0.00637644L7.93055 0C9.02614 0.0915889 9.88841 0.958205 9.98087 2.05437L9.98203 7.92418C9.89972 9.03687 9.01977 9.91914 7.90998 10L2.05148 9.99884C0.94951 9.90609 0.0808649 9.02875 0 7.92418V2.0964C0.068112 0.993566 0.919947 0.112167 2.01438 0.00637644ZM7.31755 4.58118C7.38276 4.64669 7.56594 4.58118 7.64709 4.56292C8.12475 4.45423 8.18184 4.47336 8.00128 3.99397C7.75172 3.33111 7.22393 2.71405 6.61121 2.36537C5.13622 1.52571 3.32647 1.95496 2.35494 3.3256C2.26827 3.17257 2.24219 2.76448 2.01322 2.80882C1.93467 2.82418 1.55759 2.97461 1.4831 3.01722C1.39876 3.06533 1.36514 3.11547 1.40456 3.21315L2.06046 4.88175C2.08133 4.89885 2.1051 4.91363 2.13147 4.92029C2.18567 4.93363 2.48594 4.80668 2.56652 4.77682C2.93606 4.6406 3.43227 4.48061 3.77572 4.31453C3.83224 4.28729 3.89514 4.26207 3.9247 4.20121C3.93195 4.18266 3.92644 4.16527 3.92412 4.14672C3.91745 4.09252 3.70761 3.54878 3.6795 3.52038C3.5624 3.40299 3.34618 3.61979 3.21228 3.59747C4.01194 2.64304 5.4507 2.49783 6.4431 3.25141C6.72077 3.46212 6.99351 3.79978 7.14277 4.11541C7.179 4.19193 7.29639 4.55974 7.31784 4.58147L7.31755 4.58118ZM7.81694 7.08075C7.85201 7.11408 7.92302 7.11002 7.96852 7.10336C8.03866 7.09321 8.45748 6.9338 8.52125 6.89554C8.5711 6.86569 8.59168 6.83091 8.59371 6.7712L7.952 5.10898L7.89432 5.07942L6.20718 5.7075C6.16805 5.74373 6.1608 5.77938 6.1666 5.83097C6.17211 5.87966 6.38282 6.42774 6.40688 6.45064C6.50223 6.54136 6.66976 6.41325 6.76077 6.39238C6.78946 6.38572 6.80366 6.39615 6.79178 6.4234C6.77004 6.47354 6.52368 6.67961 6.46426 6.7257C5.23767 7.67955 3.44241 7.23002 2.83317 5.80343C2.77607 5.66953 2.7523 5.51301 2.66999 5.40201C2.59434 5.36578 1.99119 5.5162 1.94337 5.56518C1.86192 5.64895 1.96568 5.88198 2.00278 5.98342C2.25668 6.67556 2.78361 7.28595 3.4227 7.64738C4.88059 8.47197 6.70367 8.04011 7.64912 6.67353C7.71636 6.75062 7.76042 7.02684 7.81723 7.08075H7.81694Z" fill="#C6030C"/>
</g>
<defs>
<clipPath id="clip0_588_2001">
<rect width="9.98174" height="10" fill="white"/>
</clipPath>
</defs>
</svg>
