<svg width="50" height="50" viewBox="0 0 50 50" fill="none" xmlns="http://www.w3.org/2000/svg">
<path d="M25.3 26.4499C26.6 24.5999 27.95 23.6499 28.85 22.2499C30.45 19.8499 30.8 16.4499 29.75 13.8499C28.7 11.1999 26.25 9.6499 23.4 9.6999C20.55 9.7499 18.25 11.4999 17.35 14.1499C16.3 17.0499 16.75 20.5499 19.1 22.7499C20.05 23.6499 20.95 25.0999 20.45 26.4499C20 27.7499 18.45 28.2999 17.35 28.8499C14.85 29.9499 11.8 31.4999 11.3 34.4499C10.8 36.8999 12.45 39.4499 15.1 39.4499H26.75C27.25 39.4499 27.7 38.8499 27.4 38.4999C25.8 36.6499 24.1 34.1499 24.1 31.6999C23.95 29.9499 24.45 27.9999 25.3 26.4499ZM32.4 33.1999C31.05 33.1999 29.9 32.0999 29.9 30.7499C29.9 29.3999 31 28.2999 32.4 28.2999C33.75 28.2999 34.9 29.3999 34.9 30.7499C34.95 32.0999 33.75 33.1999 32.4 33.1999ZM32.4 24.7999C29.1 24.7999 26.45 27.4499 26.45 30.7499C26.45 34.7999 30.7 38.6499 32 39.5999C32.2 39.7999 32.5 39.7999 32.8 39.5999C34.1 38.5499 38.35 34.7999 38.35 30.7499C38.35 27.4499 35.7 24.7999 32.4 24.7999Z" fill="#45377D"/>
</svg>
