<svg width="13" height="18" viewBox="0 0 13 18" fill="none" xmlns="http://www.w3.org/2000/svg">
<path d="M5.41697 0.370212C8.03679 0.139077 11.0664 1.07184 11.8409 3.84926C12.6992 6.9281 10.4752 8.13063 8.6261 9.92905C7.53123 10.9935 7.87884 11.1449 7.40626 12.3784C6.80617 13.9457 4.37157 13.6044 4.22313 11.7306C4.00746 9.01211 6.14138 8.04578 7.69425 6.42024C9.31753 4.72124 7.68918 2.85443 5.59458 3.31037C3.59894 3.74414 4.1356 6.66151 2.4362 6.89264C1.17195 7.06488 0.214734 6.22457 0.30037 4.94731C0.466568 2.46942 3.07371 0.577284 5.41633 0.370846L5.41697 0.370212Z" fill="white"/>
<path d="M6.00248 13.7773C8.7219 13.7786 8.64578 18.0701 5.59586 17.6306C3.36108 17.309 3.56661 13.7761 6.00248 13.7773Z" fill="white"/>
</svg>
