<svg width="13" height="12" viewBox="0 0 13 12" fill="none" xmlns="http://www.w3.org/2000/svg">
<path d="M12.031 4.53857V10.3391C11.9713 10.6114 11.8997 10.8571 11.743 11.0908C11.4613 11.51 11.016 11.7614 10.5206 11.8462H1.82189C1.54912 11.7867 1.30236 11.7151 1.06893 11.5587C0.648358 11.2776 0.396525 10.8337 0.311523 10.3391V4.53857H12.0316H12.031Z" fill="white"/>
<path d="M0.311025 2.6435C0.382071 1.98049 1.08492 1.13638 1.78777 1.13638H2.25718V2.3807C2.25718 3.06017 3.26769 3.354 3.62609 2.71886C3.64449 2.68656 3.72188 2.51431 3.72188 2.49468V1.13574H8.62026V2.49468C8.62026 2.51368 8.69829 2.68656 8.71605 2.71886C9.07255 3.3502 10.085 3.07474 10.085 2.3579V1.13638H10.5544C11.2572 1.13638 11.9594 1.98112 12.0311 2.6435V4.05943H0.311025C0.346548 3.60856 0.26345 3.08614 0.311025 2.6435Z" fill="white"/>
<path d="M2.96117 0.15825C3.11468 0.136086 3.24091 0.265268 3.24218 0.415347C3.18255 1.0201 3.3183 1.76796 3.23901 2.35561C3.19714 2.66527 2.78672 2.65767 2.75945 2.35878C2.70045 1.72237 2.80448 0.995398 2.76198 0.349487C2.77594 0.261466 2.87236 0.171548 2.96117 0.15825Z" fill="white"/>
<path d="M9.30145 0.158118C9.45369 0.131522 9.56914 0.247403 9.58309 0.392416C9.64209 1.02883 9.53806 1.7558 9.58056 2.40171C9.54313 2.63664 9.13271 2.6835 9.10036 2.31242C9.04644 1.7007 9.14286 1.01236 9.10036 0.392416C9.10861 0.286664 9.19551 0.175848 9.30145 0.157484V0.158118Z" fill="white"/>
</svg>
