<svg width="13" height="16" viewBox="0 0 13 16" fill="none" xmlns="http://www.w3.org/2000/svg">
<path d="M11.1786 15.3239H1.70973C1.24556 15.2733 0.651573 14.7287 0.651573 14.2512V13.4932H1.6673C1.68693 13.4932 1.77622 13.4172 1.79648 13.3932C1.97442 13.181 1.84714 12.9151 1.58308 12.891C1.21136 12.8568 0.780755 12.9296 0.40904 12.8923C0.189304 12.8701 0.0271935 12.7795 0.0499903 12.5351C0.0765866 12.2514 0.433737 12.2527 0.652207 12.2634V10.4327H1.66793C1.69073 10.4327 1.80598 10.3327 1.82561 10.3042C1.96429 10.0971 1.82054 9.85268 1.58371 9.83052C1.27912 9.80266 0.426771 9.89891 0.215901 9.79696C-0.0405636 9.67284 0.0107292 9.27706 0.296956 9.23337C0.407774 9.21627 0.538856 9.2416 0.65284 9.23147V7.40076H1.61094C1.635 7.40076 1.77305 7.32857 1.79775 7.30197C1.9225 7.16645 1.8959 6.91442 1.73126 6.82324C1.49506 6.69279 0.650307 6.81184 0.322919 6.77258C-0.0475296 6.72825 -0.0373975 6.22482 0.326085 6.17353C0.430571 6.15896 0.546455 6.17796 0.652207 6.17099V4.34028H1.66793C1.68756 4.34028 1.77685 4.26429 1.79711 4.24023C1.97506 4.02809 1.84777 3.76213 1.58371 3.73806C1.212 3.70387 0.781389 3.77669 0.409674 3.73933C0.189938 3.71717 0.0278268 3.62661 0.0506237 3.38218C0.07722 3.09849 0.43437 3.09975 0.65284 3.11052V1.75157C0.65284 1.25764 1.28925 0.680123 1.78318 0.679489L11.0811 0.678223C11.6903 0.725716 12.1747 1.16456 12.24 1.77944L12.2387 14.2531C12.1861 14.78 11.703 15.2638 11.1805 15.3265L11.1786 15.3239ZM6.62371 4.94756C4.61126 5.13437 4.87912 8.17268 6.90107 7.99981C8.8863 7.8301 8.61843 4.76266 6.62371 4.94756ZM6.50973 8.32339C5.80746 8.37215 4.61696 8.7369 4.22624 9.35812C3.87986 9.90904 3.81907 10.9887 4.66952 11.0622C6.01136 10.9843 7.46276 11.1622 8.79131 11.0622C9.49611 11.009 9.5645 10.4486 9.48345 9.85268C9.3302 8.72044 7.45453 8.25754 6.50973 8.32339Z" fill="white"/>
</svg>
