<svg width="13" height="12" viewBox="0 0 13 12" fill="none" xmlns="http://www.w3.org/2000/svg">
<path d="M12.0308 11.8635H0.379224C0.265677 11.7622 0.298663 11.545 0.303737 11.3956C0.328477 10.6857 0.537809 9.70798 0.993901 9.14755C1.43477 8.60423 2.13254 8.47822 2.74278 8.20022C3.07517 8.04888 3.37014 7.82471 3.71649 7.70312C4.184 8.01531 4.67879 8.29964 5.19387 8.5276C5.34675 8.59473 5.96206 8.86829 6.07371 8.87589C6.34203 8.89362 7.50351 8.3123 7.79594 8.15146C7.93804 8.07294 8.42394 7.70502 8.52353 7.70502C8.85276 7.86016 9.16422 8.05141 9.49598 8.20022C10.3105 8.56624 10.929 8.62639 11.4326 9.44961C11.869 10.1633 12.0029 11.0384 12.0308 11.8629V11.8635Z" fill="white"/>
<path d="M8.40423 4.59635C8.30781 4.67614 8.14796 4.68247 8.10292 4.74896C8.03124 4.85155 7.99508 5.15234 7.93419 5.30242C7.14443 7.25345 5.33212 7.64226 4.38441 5.56522C4.29053 5.36005 4.22329 5.00669 4.12687 4.84332C4.04504 4.70464 3.80209 4.61282 3.68029 4.40701C3.48809 4.07962 3.46842 3.65091 3.50458 3.28173L3.87757 2.96828C3.92071 2.5592 3.82239 2.16405 3.89216 1.75941C4.2937 -0.567136 8.45118 -0.33663 8.45371 2.0963C8.45371 2.33567 8.27483 2.91761 8.50065 3.07339C8.56345 3.11709 8.68588 3.11583 8.73282 3.16015C8.95738 3.37799 8.64909 4.39181 8.4036 4.59635H8.40423Z" fill="white"/>
<path d="M7.9588 7.4083C7.35427 7.75912 6.73833 8.09727 6.06973 8.31701L4.18066 7.4083L4.79407 6.9834C5.44427 7.4672 6.14459 7.59954 6.89691 7.25569C7.01554 7.20123 7.2033 7.02582 7.29845 7.01632C7.41263 7.00492 7.98671 7.36714 7.95753 7.4083H7.9588Z" fill="white"/>
</svg>
