<svg width="17" height="17" viewBox="0 0 17 17" fill="none" xmlns="http://www.w3.org/2000/svg">
<path d="M3.54167 14.875C3.15208 14.875 2.81858 14.7363 2.54115 14.4589C2.26372 14.1814 2.125 13.8479 2.125 13.4583V3.54167C2.125 3.15208 2.26372 2.81858 2.54115 2.54115C2.81858 2.26372 3.15208 2.125 3.54167 2.125H13.4583C13.8479 2.125 14.1814 2.26372 14.4589 2.54115C14.7363 2.81858 14.875 3.15208 14.875 3.54167H9.20833C8.37014 3.54167 7.68837 3.80434 7.16302 4.32969C6.63767 4.85503 6.375 5.53681 6.375 6.375V10.625C6.375 11.4632 6.63767 12.145 7.16302 12.6703C7.68837 13.1957 8.37014 13.4583 9.20833 13.4583H14.875C14.875 13.8479 14.7363 14.1814 14.4589 14.4589C14.1814 14.7363 13.8479 14.875 13.4583 14.875H3.54167ZM9.20833 12.0417C8.81875 12.0417 8.48524 11.903 8.20781 11.6255C7.93038 11.3481 7.79167 11.0146 7.79167 10.625V6.375C7.79167 5.98542 7.93038 5.65191 8.20781 5.37448C8.48524 5.09705 8.81875 4.95833 9.20833 4.95833H14.1667C14.5563 4.95833 14.8898 5.09705 15.1672 5.37448C15.4446 5.65191 15.5833 5.98542 15.5833 6.375V10.625C15.5833 11.0146 15.4446 11.3481 15.1672 11.6255C14.8898 11.903 14.5563 12.0417 14.1667 12.0417H9.20833ZM11.3333 9.5625C11.6403 9.5625 11.8941 9.46215 12.0948 9.26146C12.2955 9.06076 12.3958 8.80694 12.3958 8.5C12.3958 8.19306 12.2955 7.93924 12.0948 7.73854C11.8941 7.53785 11.6403 7.4375 11.3333 7.4375C11.0264 7.4375 10.7726 7.53785 10.5719 7.73854C10.3712 7.93924 10.2708 8.19306 10.2708 8.5C10.2708 8.80694 10.3712 9.06076 10.5719 9.26146C10.7726 9.46215 11.0264 9.5625 11.3333 9.5625Z" fill="white"/>
</svg>
