<svg width="22" height="22" viewBox="0 0 22 22" fill="none" xmlns="http://www.w3.org/2000/svg">
<g clip-path="url(#clip0_1731_4816)">
<path d="M14.4235 17.873C14.5484 18.4618 14.2304 18.9374 13.621 18.9978H7.39411C6.76574 18.945 6.43642 18.4845 6.56133 17.873H2.85926C1.84857 17.7749 1.89021 16.8502 2.1779 16.0991C2.84791 14.3477 4.72922 14.3741 6.33043 14.4798C7.05343 14.5289 7.72722 14.861 8.21174 15.3932C8.3783 15.3291 8.54107 15.2498 8.71141 15.197C9.49498 14.963 11.4861 14.963 12.2696 15.197C12.4362 15.246 12.5914 15.3177 12.7466 15.3932C13.0456 15.1404 13.2955 14.8912 13.6589 14.7289C14.5636 14.3175 16.9067 14.3515 17.7735 14.8648C18.7274 15.431 19.7722 17.5371 18.1559 17.873H14.4197H14.4235Z" fill="white"/>
<path d="M10.4905 14.4642C11.7344 14.4642 12.7428 13.4587 12.7428 12.2184C12.7428 10.9781 11.7344 9.97266 10.4905 9.97266C9.2466 9.97266 8.23822 10.9781 8.23822 12.2184C8.23822 13.4587 9.2466 14.4642 10.4905 14.4642Z" fill="white"/>
<path d="M5.39166 13.9092C6.48295 13.9092 7.36761 13.0271 7.36761 11.939C7.36761 10.8509 6.48295 9.96875 5.39166 9.96875C4.30037 9.96875 3.41571 10.8509 3.41571 11.939C3.41571 13.0271 4.30037 13.9092 5.39166 13.9092Z" fill="white"/>
<path d="M15.5932 13.9092C16.6845 13.9092 17.5692 13.0271 17.5692 11.939C17.5692 10.8509 16.6845 9.96875 15.5932 9.96875C14.5019 9.96875 13.6172 10.8509 13.6172 11.939C13.6172 13.0271 14.5019 13.9092 15.5932 13.9092Z" fill="white"/>
<path d="M10.4754 9.37522C12.5179 9.37522 14.1737 7.72422 14.1737 5.68761C14.1737 3.651 12.5179 2 10.4754 2C8.43288 2 6.7771 3.651 6.7771 5.68761C6.7771 7.72422 8.43288 9.37522 10.4754 9.37522Z" fill="white"/>
<path d="M9.87729 7.06141C9.77887 7.06141 9.68424 7.02367 9.60853 6.95196L8.6092 5.95551C8.46157 5.80831 8.46157 5.57052 8.6092 5.42331C8.75682 5.27611 8.9953 5.27611 9.14293 5.42331L9.87729 6.15555L11.7775 4.26079C11.9252 4.11359 12.1636 4.11359 12.3113 4.26079C12.4589 4.40799 12.4589 4.64578 12.3113 4.79299L10.1423 6.95573C10.0666 7.03122 9.97192 7.06519 9.8735 7.06519L9.87729 7.06141Z" fill="#D9D9D9"/>
</g>
<defs>
<clipPath id="clip0_1731_4816">
<rect width="17" height="17" fill="white" transform="translate(2 2)"/>
</clipPath>
</defs>
</svg>
