<svg width="13" height="12" viewBox="0 0 13 12" fill="none" xmlns="http://www.w3.org/2000/svg">
<path d="M10.4877 6.58811V11.0107C10.4877 11.1 10.4021 11.3444 10.3469 11.4248C10.2917 11.5053 10.0367 11.7041 9.94724 11.7041H7.46062V9.0071C7.46062 8.09017 6.3797 7.51645 5.58677 7.90779C5.24677 8.0756 4.86616 8.55623 4.86616 8.94568V11.7041H2.37954C2.17846 11.7041 1.83908 11.2982 1.83908 11.1031V6.61914H0.897087C0.840631 6.61914 0.612268 6.50705 0.557715 6.46462C0.280507 6.25249 0.206289 5.80858 0.418794 5.52489L5.3914 0.562144C5.87413 0.191062 6.5256 0.213859 6.99818 0.593173L11.8775 5.4641C12.1059 5.73386 12.0774 6.17587 11.8135 6.41586C11.7703 6.45513 11.5344 6.58874 11.4925 6.58874H10.489L10.4877 6.58811Z" fill="white"/>
</svg>
