<svg width="13" height="14" viewBox="0 0 13 14" fill="none" xmlns="http://www.w3.org/2000/svg">
<path d="M6.93747 0.744793C7.05292 1.13551 6.99139 1.54015 7.01296 1.94226C8.82907 2.30574 10.2519 3.85529 10.3807 5.7126C10.4301 6.42817 10.2424 7.71936 10.4866 8.32981C10.8006 9.11503 12.6522 9.93635 11.8168 10.89C11.7236 10.9964 11.4204 11.175 11.2865 11.175H8.00253V12.0413C8.00253 12.9854 6.97045 13.7643 6.06588 13.7219C5.22411 13.6826 4.31066 12.9139 4.31066 12.0413V11.175H1.02668C1.00194 11.175 0.766596 11.0901 0.72473 11.0686C0.400581 10.9039 0.250876 10.5253 0.307332 10.1757C0.392334 9.64632 1.48848 8.98965 1.76822 8.44822C2.08856 7.82701 1.88304 6.45793 1.93061 5.7107C2.0486 3.86353 3.49046 2.28801 5.30023 1.94226C5.28755 1.34068 5.20001 0.421205 6.00562 0.293922C6.515 0.2135 6.63362 0.456033 6.9381 0.744793H6.93747Z" fill="white"/>
</svg>
