<svg width="24" height="24" viewBox="0 0 24 24" fill="none" xmlns="http://www.w3.org/2000/svg">
<mask id="mask0_303_114" style="mask-type:luminance" maskUnits="userSpaceOnUse" x="0" y="2" width="24" height="20">
<path d="M23.6031 2H0V22H23.6031V2Z" fill="white"/>
</mask>
<g mask="url(#mask0_303_114)">
<path d="M14.7783 15.1069H13.8905C13.0656 15.1176 12.2658 15.392 11.608 15.89C10.9503 16.388 10.4692 17.0834 10.2352 17.8745C10.1865 18.0382 10.0916 18.1844 9.96198 18.2956C9.8323 18.4067 9.67332 18.4781 9.5041 18.5012C8.3937 18.6621 7.26226 18.5977 6.17729 18.3118C5.09231 18.0259 4.07603 17.5244 3.18907 16.8373C2.3021 16.1501 1.56263 15.2914 1.01475 14.3122C0.466875 13.3331 0.121826 12.2536 0.000183273 11.1382C-0.164268 9.42581 0.203896 7.70436 1.0544 6.20898C1.9049 4.71359 3.19627 3.51718 4.75214 2.78317C6.28269 2.07778 7.99166 1.85485 9.65194 2.144C11.3122 2.43315 12.8452 3.22074 14.0472 4.40202C14.4731 4.84964 14.874 5.3203 15.2482 5.81191C11.2796 7.74403 11.0707 12.8093 14.7783 15.1069Z" fill="white"/>
<path d="M23.551 22H10.9139C10.853 20.7469 10.8705 19.4912 10.9661 18.2403C11.0893 17.586 11.44 16.9965 11.9561 16.576C12.4722 16.1555 13.1204 15.9311 13.786 15.9426C16.0836 15.873 18.3813 15.873 20.6789 15.9426C21.4238 15.9677 22.1321 16.2713 22.6638 16.7935C23.1956 17.3156 23.5122 18.0182 23.551 18.7625C23.6032 19.8591 23.551 20.9034 23.551 22Z" fill="white"/>
<path d="M17.2325 6.28194C17.8036 6.27493 18.3704 6.38227 18.8994 6.5976C19.4284 6.81293 19.909 7.13192 20.3129 7.53579C20.7167 7.93966 21.0357 8.42024 21.251 8.94925C21.4664 9.47827 21.5737 10.0449 21.5667 10.6161C21.5667 11.1828 21.4543 11.744 21.2358 12.2669C21.0174 12.7899 20.6973 13.2642 20.2941 13.6625C19.891 14.0608 19.4127 14.3752 18.8872 14.5873C18.3616 14.7994 17.7992 14.905 17.2325 14.8981C16.6614 14.9051 16.0946 14.7978 15.5656 14.5824C15.0366 14.3671 14.556 14.0481 14.1521 13.6442C13.7483 13.2404 13.4293 12.7598 13.2139 12.2308C12.9986 11.7018 12.8913 11.135 12.8983 10.5639C12.8911 9.99516 12.9987 9.43084 13.2146 8.90463C13.4305 8.37843 13.7504 7.90118 14.155 7.50143C14.5596 7.10168 15.0407 6.78763 15.5695 6.57809C16.0983 6.36856 16.6639 6.26785 17.2325 6.28194Z" fill="white"/>
<path d="M4.38626 6.75198V6.54309C4.38626 6.43866 4.38626 6.39404 4.38626 6.2896C4.38626 6.18516 4.38626 6.12534 4.38626 6.0209V5.81201H10.0782C10.0782 5.86423 10.0782 5.94778 10.0782 6V6.75198H4.38626ZM4.38626 8.89296C4.38626 8.73631 4.38623 8.56633 4.38623 8.40967C4.38623 8.25301 4.38626 8.26631 4.38626 8.21409V7.95299H10.0782C10.0782 8.00521 10.0782 8.10489 10.0782 8.15711V8.47518C10.0782 8.54931 10.0782 8.84074 10.0782 8.89296H4.38626ZM5.58731 10.9295H4.80402C4.81447 10.7853 4.8498 10.6439 4.90846 10.5118C4.95785 10.3794 5.02839 10.256 5.11733 10.1462C6.00506 10.1462 6.57948 10.0418 6.94501 9.72846C7.1305 9.5804 7.27561 9.38793 7.36689 9.16885C7.45818 8.94977 7.49268 8.71115 7.4672 8.47518C7.49898 8.02718 7.36931 7.58258 7.10167 7.22191C6.78264 6.94695 6.37397 6.79838 5.95284 6.80419L5.50003 6.75198H5.11733V6.43862H6.52726C6.97215 6.41771 7.41658 6.48883 7.83274 6.64751C8.15128 6.82709 8.4066 7.10065 8.56381 7.4308C8.76097 7.76102 8.8521 8.14375 8.82491 8.52739C8.84769 8.99066 8.71941 9.4488 8.45937 9.83287C8.20261 10.222 7.84036 10.5299 7.41499 10.7206C6.95237 10.9129 6.45341 11.002 5.95284 10.9817L5.58731 10.9295ZM8.40715 14.1149C8.28198 14.1218 8.15677 14.1021 8.03976 14.0571C7.92275 14.0121 7.8166 13.9428 7.7283 13.8538L7.20611 13.3316L4.80402 10.8773L5.95284 10.6162L6.57948 10.9295L7.15389 11.5039L8.25049 12.6527L8.77269 13.0705L9.3471 13.2794C9.27271 13.4858 9.16704 13.6795 9.03378 13.8538C8.96144 13.9485 8.86544 14.0225 8.75545 14.0683C8.64545 14.1141 8.52533 14.1302 8.40715 14.1149Z" fill="#D4D4D4" style="mix-blend-mode:darken"/>
</g>
</svg>
