<svg width="22" height="22" viewBox="0 0 22 22" fill="none" xmlns="http://www.w3.org/2000/svg">
<g clip-path="url(#clip0_1731_4813)">
<path d="M14.9815 2V11.0629L14.0517 11.0384L13.8744 12.2661C13.7995 12.2946 13.7207 12.3313 13.6459 12.3762C13.571 12.417 13.5001 12.4659 13.4292 12.5149L12.334 12.005L11.2663 13.8078L12.2079 14.5828C12.2 14.6276 12.1961 14.6684 12.1961 14.7133L12.1882 14.9702C12.1882 15.011 12.1882 15.0559 12.1882 15.1008L11.2151 15.8268L12.1921 17.6826L13.311 17.2298C13.378 17.2829 13.445 17.3318 13.5159 17.3808C13.5868 17.4256 13.6616 17.4664 13.7404 17.5031L13.8192 18.3474H2V2H14.9815Z" fill="white"/>
<path d="M6.55043 6.07812H5.44336V8.40298H6.55043V6.07812Z" fill="#D9D9D9"/>
<path d="M8.93788 4.49219H7.83081V8.40366H8.93788V4.49219Z" fill="#D9D9D9"/>
<path d="M11.4554 2.97461H10.3483V8.40335H11.4554V2.97461Z" fill="#D9D9D9"/>
<path d="M12.2433 8.88867H4.6554V9.43114H12.2433V8.88867Z" fill="#D9D9D9"/>
<path d="M9.32397 12.0137H3.51678V12.3196H9.32397V12.0137Z" fill="#D9D9D9"/>
<path d="M9.32397 13.4648H3.51678V13.7707H9.32397V13.4648Z" fill="#D9D9D9"/>
<path d="M9.32397 14.9141H3.51678V15.22H9.32397V14.9141Z" fill="#D9D9D9"/>
<path d="M9.32397 16.3652H3.51678V16.6711H9.32397V16.3652Z" fill="#D9D9D9"/>
<path d="M17.7432 15.2463L18.6848 16.0213L17.6171 17.8241L16.5298 17.3142C16.4628 17.3632 16.3879 17.408 16.3131 17.4529C16.2382 17.4937 16.1634 17.5304 16.0885 17.563L15.9073 18.7907L13.8626 18.7377L13.8232 18.3461L13.7444 17.5018C13.6656 17.4651 13.5907 17.4243 13.5198 17.3795C13.4489 17.3305 13.3819 17.2816 13.3149 17.2286L12.1961 17.6813L11.219 15.8255L12.1921 15.0995C12.1921 15.0546 12.1921 15.0098 12.1921 14.969L12.2 14.712C12.2 14.6671 12.2039 14.6264 12.2118 14.5815L11.2702 13.8065L12.3379 12.0038L13.4331 12.5136C13.504 12.4647 13.575 12.4157 13.6498 12.3749C13.7247 12.3301 13.8035 12.2933 13.8783 12.2648L14.0556 11.0371L14.9854 11.0616L16.1003 11.0901L16.2185 12.326C16.3013 12.3586 16.3761 12.3994 16.4431 12.4483C16.514 12.4932 16.5849 12.5462 16.6519 12.5992L17.7669 12.1465L18.7478 14.0023L17.7708 14.7283C17.7747 14.7732 17.7787 14.814 17.7747 14.8548V15.1158C17.7708 15.1566 17.7629 15.2015 17.7472 15.2463H17.7432Z" fill="white"/>
<path d="M16.0767 18.9994L13.6853 18.9382L13.5592 17.6371C13.5119 17.6126 13.4607 17.5841 13.4174 17.5555C13.3701 17.5229 13.3268 17.4943 13.2874 17.4617L12.1094 17.9389L10.9669 15.769L11.9951 15.0022V14.9737L12.003 14.7086C12.003 14.7086 12.003 14.6841 12.003 14.6759L11.0102 13.8602L12.2591 11.7515L13.4134 12.2899C13.4607 12.2573 13.508 12.2287 13.5553 12.2043C13.5986 12.1757 13.6498 12.1512 13.6971 12.1308L13.8823 10.8379L16.2737 10.8991L16.3958 12.1961C16.451 12.2246 16.5022 12.2573 16.5495 12.2899C16.5889 12.3144 16.6322 12.3429 16.6755 12.3756L17.8496 11.8984L18.9961 14.0682L17.9638 14.835C17.9638 14.835 17.9638 14.8636 17.9638 14.8799V15.1246C17.9638 15.1246 17.9638 15.1572 17.9599 15.1695L18.9409 15.977L17.692 18.0857L16.5455 17.5473C16.5022 17.5759 16.4549 17.6044 16.4076 17.6289C16.3564 17.6575 16.3092 17.6819 16.2619 17.7023L16.0688 18.9953L16.0767 18.9994ZM14.0399 18.5385L15.7379 18.5833L15.9112 17.4209L16.0137 17.376C16.0846 17.3475 16.1516 17.3108 16.2225 17.2741C16.2855 17.2374 16.3564 17.1925 16.4195 17.1476L16.5101 17.0824L17.5423 17.5677L18.4287 16.0709L17.5108 15.3163L17.5581 15.1776C17.5659 15.1572 17.5699 15.1328 17.5699 15.1164V14.8513C17.5777 14.8065 17.5699 14.782 17.5699 14.7534L17.562 14.6392L17.6526 14.5658L18.4878 13.9459L17.6723 12.4041L16.6165 12.8324L16.5298 12.763C16.4667 12.7141 16.4037 12.6651 16.3367 12.6244C16.2698 12.5795 16.2107 12.5428 16.1437 12.5183L16.0294 12.4734L15.9152 11.2906L14.2171 11.2458L14.0477 12.4163L13.9374 12.4571C13.8704 12.4816 13.8035 12.5142 13.7404 12.5509C13.6656 12.5917 13.5986 12.6366 13.5356 12.6815L13.445 12.7426L12.4088 12.2614L11.5224 13.7582L12.4206 14.4965L12.4009 14.6148C12.397 14.6474 12.393 14.6759 12.393 14.7086L12.3852 14.9737C12.3852 15.0022 12.3852 15.0389 12.3852 15.0797L12.397 15.1939L11.4751 15.8832L12.2867 17.425L13.3465 16.9967L13.4331 17.0661C13.4962 17.115 13.5592 17.1639 13.6262 17.2088C13.6853 17.2455 13.7523 17.2822 13.8232 17.3149L13.9256 17.3638L14.0359 18.5385H14.0399Z" fill="#D9D9D9"/>
<path d="M14.9814 15.8999C15.508 15.8999 15.9349 15.458 15.9349 14.9128C15.9349 14.3677 15.508 13.9258 14.9814 13.9258C14.4549 13.9258 14.028 14.3677 14.028 14.9128C14.028 15.458 14.4549 15.8999 14.9814 15.8999Z" fill="#D9D9D9"/>
</g>
<defs>
<clipPath id="clip0_1731_4813">
<rect width="17" height="17" fill="white" transform="translate(2 2)"/>
</clipPath>
</defs>
</svg>
