<svg width="22" height="22" viewBox="0 0 22 22" fill="none" xmlns="http://www.w3.org/2000/svg">
<g clip-path="url(#clip0_1731_4815)">
<path d="M19.0082 1H1.99182C1.44405 1 1 1.44405 1 1.99182V19.0082C1 19.5559 1.44405 20 1.99182 20H19.0082C19.5559 20 20 19.5559 20 19.0082V1.99182C20 1.44405 19.5559 1 19.0082 1Z" fill="white"/>
<path d="M8.67402 8.4082H2.6134V8.86526H8.67402V8.4082Z" fill="#D9D9D9"/>
<path d="M10.2646 11.3965H2.6134V11.8535H10.2646V11.3965Z" fill="#D9D9D9"/>
<path d="M13.8205 14.3906H2.6134V14.8477H13.8205V14.3906Z" fill="#D9D9D9"/>
<path d="M18.254 17.3809H2.6134V17.8379H18.254V17.3809Z" fill="#D9D9D9"/>
<path d="M2.31635 3.07504C2.50374 3.04305 2.75055 3.01562 3.06592 3.01562C3.44985 3.01562 3.73323 3.10704 3.91149 3.26701C4.07603 3.4087 4.17658 3.62809 4.17658 3.89775C4.17658 4.16742 4.09431 4.38681 3.94348 4.54221C3.7378 4.7616 3.39958 4.87586 3.02022 4.87586C2.90595 4.87586 2.79626 4.87129 2.70485 4.84844V6.05965H2.31635V3.07961V3.07504ZM2.70485 4.53307C2.79169 4.55592 2.89681 4.56506 3.02936 4.56506C3.50013 4.56506 3.78808 4.33653 3.78808 3.9206C3.78808 3.50468 3.5047 3.331 3.07507 3.331C2.90595 3.331 2.77341 3.34471 2.70942 3.36299V4.53764L2.70485 4.53307Z" fill="#D9D9D9"/>
<path d="M4.69763 3.07961C4.89417 3.03848 5.17754 3.01562 5.44721 3.01562C5.86314 3.01562 6.1328 3.09333 6.3202 3.26244C6.47103 3.39499 6.55787 3.60066 6.55787 3.83376C6.55787 4.23141 6.30648 4.4965 5.99111 4.6062V4.61991C6.22421 4.70218 6.36133 4.917 6.43446 5.2278C6.53501 5.64829 6.60357 5.94081 6.66756 6.05508H6.26535C6.21507 5.96366 6.15108 5.71228 6.06424 5.33292C5.97283 4.917 5.81286 4.7616 5.46092 4.74788H5.09527V6.05508H4.70677V3.07961H4.69763ZM5.08613 4.45537H5.48378C5.8997 4.45537 6.1648 4.22684 6.1648 3.88404C6.1648 3.49554 5.88142 3.32643 5.47006 3.32186C5.28267 3.32186 5.14555 3.34014 5.08613 3.35842V4.45994V4.45537Z" fill="#D9D9D9"/>
<path d="M9.70242 4.51877C9.70242 5.5563 9.07167 6.10934 8.29924 6.10934C7.52681 6.10934 6.94177 5.49231 6.94177 4.57819C6.94177 3.61836 7.53595 2.99219 8.34495 2.99219C9.15394 2.99219 9.70242 3.62293 9.70242 4.51877ZM7.3577 4.56448C7.3577 5.20893 7.70506 5.78483 8.3221 5.78483C8.93913 5.78483 9.29106 5.21807 9.29106 4.53248C9.29106 3.93373 8.97569 3.30756 8.32667 3.30756C7.67764 3.30756 7.3577 3.90174 7.3577 4.56448Z" fill="#D9D9D9"/>
<path d="M10.8268 3.03777H11.2153V5.05798C11.2153 5.85784 10.8222 6.10465 10.3012 6.10465C10.1595 6.10465 9.98124 6.07265 9.88525 6.03152L9.94467 5.71158C10.0269 5.74357 10.1412 5.77099 10.2738 5.77099C10.6211 5.77099 10.8268 5.61559 10.8268 5.02142V3.0332V3.03777Z" fill="#D9D9D9"/>
<path d="M13.4275 4.64268H12.2528V5.73048H13.56V6.05957H11.8643V3.04297H13.496V3.36748H12.2574V4.32274H13.432V4.64725L13.4275 4.64268Z" fill="#D9D9D9"/>
<path d="M16.179 5.95917C16.0373 6.0323 15.7493 6.10543 15.3837 6.10543C14.5336 6.10543 13.8937 5.56153 13.8937 4.57428C13.8937 3.58703 14.5336 2.98828 15.4705 2.98828C15.8453 2.98828 16.083 3.07055 16.1881 3.12083L16.0921 3.44077C15.9459 3.36764 15.7356 3.31736 15.4842 3.31736C14.7758 3.31736 14.305 3.76985 14.305 4.56057C14.305 5.30101 14.7301 5.77178 15.466 5.77178C15.7036 5.77178 15.9459 5.7215 16.1013 5.64837L16.1836 5.95917H16.179Z" fill="#D9D9D9"/>
<path d="M17.3674 3.37205H16.4487V3.04297H18.6837V3.37205H17.7604V6.05957H17.3674V3.37205Z" fill="#D9D9D9"/>
</g>
<defs>
<clipPath id="clip0_1731_4815">
<rect width="19" height="19" fill="white" transform="translate(1 1)"/>
</clipPath>
</defs>
</svg>
