<svg width="13" height="16" viewBox="0 0 13 16" fill="none" xmlns="http://www.w3.org/2000/svg">
<path d="M11.2827 15.6427H1.05584C0.101157 15.3951 0.311124 14.4073 0.323811 13.6436L3.61795 10.9016H3.68328C3.69534 10.9314 3.70675 10.9624 3.73022 10.9871C4.09814 11.3664 4.41785 11.8027 4.77816 12.1814C4.91708 12.3277 5.04458 12.4968 5.26216 12.4987C5.49306 12.5006 5.92758 12.0959 6.1236 11.9414C7.15186 11.1308 8.14143 10.2696 9.17414 9.46415C9.56109 9.05254 9.09993 8.47692 8.61148 8.75301L5.34145 11.4006C5.29959 11.4069 5.17335 11.2638 5.13719 11.2258C4.77943 10.8465 4.3855 10.2557 4.01314 9.92959C3.8647 9.79977 3.6928 9.75924 3.50757 9.83713L0.307953 12.4493V1.15091C0.307953 0.793755 0.793224 0.344783 1.15924 0.358715H11.1787C11.6754 0.401142 11.9773 0.75892 12.0306 1.23955V14.7644C11.9874 15.2064 11.7147 15.5395 11.2821 15.644L11.2827 15.6427ZM2.54401 3.05317C2.03273 3.10573 1.96232 3.78203 2.44822 3.93908L7.71199 3.91312C8.15285 3.66489 7.98475 3.0804 7.50012 3.04557L2.54464 3.05317H2.54401ZM2.4533 5.32083C1.96866 5.4728 2.02448 6.13708 2.5383 6.20674C3.24051 6.30236 4.14191 6.14341 4.8657 6.20674C5.36175 6.11428 5.42328 5.46268 4.92596 5.31576L2.4533 5.32083Z" fill="white"/>
</svg>
