<svg width="13" height="12" viewBox="0 0 13 12" fill="none" xmlns="http://www.w3.org/2000/svg">
<path d="M6.794 0.143212C7.06359 0.249597 7.16191 0.391444 7.18411 0.678937C7.21076 1.02849 7.16191 1.41034 7.18411 1.76369C7.62688 1.84664 8.03921 2.04231 8.42679 2.26458C8.48008 2.25508 9.07889 1.59778 9.19625 1.50152C9.39416 1.33815 9.59779 1.25836 9.83566 1.4116C9.96697 1.49646 10.633 2.16706 10.7295 2.30131C11.1069 2.82754 10.144 3.3487 9.88514 3.72042C10.1046 4.10859 10.3025 4.51957 10.3869 4.96094C10.7409 4.98311 11.1234 4.93435 11.4735 4.96094C11.7641 4.98311 11.9835 5.11799 12.0115 5.42891C12.0356 5.70121 12.0406 6.30469 12.0108 6.57192C11.9791 6.85498 11.7615 6.99429 11.4957 7.01709C11.1399 7.04749 10.7472 6.99429 10.3875 7.01836C10.3006 7.4534 10.1179 7.86817 9.88641 8.24369C9.87753 8.29751 10.5575 8.91493 10.6502 9.02701C10.8297 9.24422 10.8995 9.46078 10.7079 9.70142C10.5759 9.8667 10.0107 10.4417 9.84898 10.5569C9.32185 10.9337 8.79915 9.97181 8.42743 9.71408C8.04048 9.93572 7.62562 10.1289 7.18475 10.215C7.15938 10.5728 7.21584 10.9685 7.18348 11.3213C7.15938 11.5866 7.02046 11.8038 6.73754 11.8355C6.52123 11.8595 5.70864 11.8659 5.51199 11.8253C5.26333 11.774 5.14217 11.5581 5.12378 11.3225C5.09586 10.966 5.14788 10.5759 5.12251 10.2162C4.68037 10.1289 4.27059 9.93319 3.8811 9.71408C3.82845 9.72295 3.23598 10.3708 3.1237 10.4664C2.90485 10.6519 2.6841 10.7323 2.43607 10.5348C2.27051 10.4031 1.69453 9.83883 1.57908 9.67736C1.20164 9.15113 2.16521 8.62933 2.42338 8.25825C2.20327 7.87007 2.00472 7.45973 1.92162 7.01772C1.56829 6.99493 1.18452 7.04495 0.834994 7.01772C0.551443 6.99556 0.400469 6.89424 0.29834 6.62891V5.34976C0.404909 5.08063 0.547003 4.98247 0.834994 4.96031C1.18515 4.93371 1.56766 4.98247 1.92162 4.96031C2.00535 4.5183 2.20327 4.10796 2.42338 3.71978C2.16521 3.34807 1.20164 2.82691 1.57908 2.30068C1.69453 2.13983 2.27051 1.57498 2.43607 1.44326C2.6841 1.24633 2.90485 1.32611 3.1237 1.51166C3.23661 1.60728 3.82845 2.25445 3.8811 2.26395C4.26932 2.04231 4.681 1.84981 5.12251 1.76179C5.14851 1.4021 5.09586 1.01139 5.12378 0.655507C5.14534 0.381312 5.26206 0.242631 5.51326 0.142578H6.79463L6.794 0.143212ZM6.14887 3.52917C4.4019 3.53804 3.20616 5.32759 3.88364 6.94237C4.72097 8.93709 7.58819 8.94026 8.42172 6.94237C9.09412 5.33076 7.90219 3.52031 6.14887 3.52917Z" fill="white"/>
</svg>
