<svg width="10" height="16" viewBox="0 0 10 16" fill="none" xmlns="http://www.w3.org/2000/svg">
<path d="M0.723022 15.5157L0.767426 11.083H3.62006L4.18209 10.2914C4.40093 10.4605 4.5906 10.6663 4.81389 10.8309C4.89128 10.8879 5.12535 11.0671 5.20084 11.0488C5.28013 11.0291 5.77619 10.6245 5.8707 10.5409C7.0842 9.46249 8.03761 7.83759 6.79177 6.37163L7.17935 5.7998H9.6057V15.5163H0.723022V15.5157ZM5.60428 12.8732H4.72191V13.754H5.60428V12.8732Z" fill="white"/>
<path d="M2.75234 0.485352L3.28582 2.33126L7.00306 2.33696L7.57524 0.485352H9.6045V4.87373L9.56009 4.91807H6.70746L6.05726 5.85337C4.26651 5.13274 2.4929 6.72218 3.06063 8.58772C3.17164 8.95121 3.38859 9.26656 3.57001 9.59521L3.14944 10.2025H0.723083V0.485985H2.75234V0.485352Z" fill="white"/>
<path d="M4.95029 6.56992C5.49075 6.49646 6.0255 6.73077 6.30398 7.19938C6.9047 8.21003 5.92084 9.34924 5.17358 9.96539C4.38256 9.37774 3.34414 8.07578 4.09203 7.09361C4.28804 6.83588 4.62488 6.61425 4.94966 6.57055L4.95029 6.56992ZM5.6043 7.56032H4.72193V8.44116H5.6043V7.56032Z" fill="white"/>
<path d="M6.66301 0.485352L6.35029 1.44978L3.95628 1.44028L3.66385 0.485352H6.66301Z" fill="white"/>
</svg>
