<svg width="22" height="22" viewBox="0 0 22 22" fill="none" xmlns="http://www.w3.org/2000/svg">
<g clip-path="url(#clip0_1731_4814)">
<path d="M13.7934 3.41992H2.93103V19.0001H13.7934V3.41992Z" fill="white"/>
<path d="M12.3989 17.3785L1.66789 17.556L1 2.64268L11.6136 2L12.3989 17.3785Z" fill="white"/>
<path d="M5.38182 5.55306C5.91837 5.55306 6.35711 5.97255 6.35711 6.49153C6.35711 7.01051 5.92117 7.43 5.38182 7.43C4.84248 7.43 4.40653 7.01051 4.40653 6.49153C4.40653 5.97255 4.84248 5.55306 5.38182 5.55306ZM5.38182 5.10938C4.58818 5.10938 3.94543 5.72785 3.94543 6.49153C3.94543 7.25521 4.58818 7.87369 5.38182 7.87369C6.17547 7.87369 6.81821 7.25521 6.81821 6.49153C6.81821 5.72785 6.17547 5.10938 5.38182 5.10938Z" fill="#D9D9D9"/>
<path d="M5.14706 7.00513C5.11073 7.00513 5.0716 6.99169 5.04366 6.9648L4.65522 6.59102C4.59653 6.53455 4.59653 6.44582 4.65522 6.39204C4.7139 6.33826 4.80612 6.33557 4.86201 6.39204L5.14706 6.66632L5.88481 5.95641C5.9435 5.89995 6.03572 5.89995 6.09161 5.95641C6.1475 6.01288 6.15029 6.10162 6.09161 6.1554L5.25045 6.9648C5.22251 6.99169 5.18339 7.00513 5.14706 7.00513Z" fill="#D9D9D9"/>
<path d="M5.45726 8.96908C5.99381 8.96908 6.43255 9.38857 6.43255 9.90755C6.43255 10.4265 5.99661 10.846 5.45726 10.846C4.91792 10.846 4.48197 10.4265 4.48197 9.90755C4.48197 9.38857 4.91792 8.96908 5.45726 8.96908ZM5.45726 8.52539C4.66362 8.52539 4.02087 9.14387 4.02087 9.90755C4.02087 10.6712 4.66362 11.2897 5.45726 11.2897C6.25091 11.2897 6.89365 10.6712 6.89365 9.90755C6.89365 9.14387 6.25091 8.52539 5.45726 8.52539Z" fill="#D9D9D9"/>
<path d="M5.2253 10.4211C5.18898 10.4211 5.14985 10.4077 5.12191 10.3808L4.73347 10.007C4.67478 9.95057 4.67478 9.86183 4.73347 9.80805C4.79215 9.75427 4.88437 9.75158 4.94026 9.80805L5.2253 10.0823L5.96306 9.37243C6.02174 9.31596 6.11396 9.31596 6.16985 9.37243C6.22575 9.4289 6.22854 9.51764 6.16985 9.57142L5.3287 10.3808C5.30076 10.4077 5.26163 10.4211 5.2253 10.4211Z" fill="#D9D9D9"/>
<path d="M10.7026 5.69141H8.13721V6.1351H10.7026V5.69141Z" fill="#D9D9D9"/>
<path d="M12.7873 6.85156H8.13721V7.29525H12.7873V6.85156Z" fill="#D9D9D9"/>
<path d="M10.7026 9.03906H8.13721V9.48275H10.7026V9.03906Z" fill="#D9D9D9"/>
<path d="M12.7873 10.2012H8.13721V10.6449H12.7873V10.2012Z" fill="#D9D9D9"/>
<path d="M19.1085 15.1739C18.9549 17.024 17.3452 18.4814 15.3834 18.4814C13.3183 18.4814 11.6472 16.8707 11.6472 14.8862C11.6472 13.0899 13.0165 11.6002 14.8078 11.334V15.1282L19.1085 15.1766V15.1739Z" fill="white"/>
<path d="M16.5125 10.4221V13.5952H20C20 13.5952 19.6675 10.285 16.5125 10.4221Z" fill="white"/>
</g>
<defs>
<clipPath id="clip0_1731_4814">
<rect width="19" height="17" fill="white" transform="translate(1 2)"/>
</clipPath>
</defs>
</svg>
