<svg width="50" height="50" viewBox="0 0 50 50" fill="none" xmlns="http://www.w3.org/2000/svg">
<path d="M10.81 14.17C10.83 8.90003 15.24 4.48003 20.51 4.46003C25.86 4.44003 30.38 9.01003 30.28 14.34C30.18 19.6 25.7 23.98 20.45 23.93C15.19 23.87 10.79 19.42 10.81 14.16V14.17Z" fill="#C30209"/>
<path d="M23.26 28.02C20.58 33.39 20.89 38.25 24.18 42.85C18.86 45.07 8.97001 42.15 6.20001 37.36C5.36001 35.9 5.03 33.98 5 32.26C4.97 29.73 6.81 28.09 9.44 28.04C13.92 27.96 18.39 28.02 23.26 28.02Z" fill="#C30209"/>
<path d="M31.4999 24.4601C27.8999 25.4301 25.0199 28.2601 23.9899 31.8501C21.9699 38.8801 27.49 45.5401 34.3 45.5301C40.08 45.5101 44.9399 40.6901 44.9999 34.9001C45.0699 28.1401 38.5099 22.5801 31.4999 24.4601ZM40.52 31.7801C40.52 31.7801 40.4999 31.8401 40.4899 31.8701C40.4299 32.0201 40.3499 32.1501 40.2499 32.2501C38.1399 34.5101 35.8599 36.6301 33.7199 38.8701C32.6899 39.9601 31.85 39.9201 30.89 38.8301C30.07 37.9201 29.0699 37.1601 28.3399 36.1901C28.2899 36.1301 28.24 36.0501 28.2 35.9801C28.18 35.9601 28.1699 35.9301 28.1599 35.9001C28.1399 35.8701 28.1299 35.8501 28.1199 35.8201C28.1099 35.8201 28.11 35.8001 28.11 35.8001C27.85 35.0001 28.6699 34.1801 29.4299 34.5201C29.5299 34.5601 29.62 34.6201 29.7 34.6901C30.52 35.4401 31.0999 36.4801 32.0599 37.7601C34.7399 34.9601 36.7299 32.8101 38.8399 30.7701C38.8799 30.7301 38.93 30.7001 38.98 30.6701C39.07 30.6101 39.1699 30.5601 39.2799 30.5301C40.0199 30.2901 40.75 31.0401 40.52 31.7801Z" fill="#C30209"/>
</svg>
