<svg width="50" height="50" viewBox="0 0 50 50" fill="none" xmlns="http://www.w3.org/2000/svg">
<path d="M30.54 20.79H20.26C19.41 20.79 18.73 20.1 18.73 19.26C18.73 18.42 19.42 17.73 20.26 17.73H30.54C31.39 17.73 32.07 18.42 32.07 19.26C32.07 20.1 31.38 20.79 30.54 20.79Z" fill="#C30209"/>
<path d="M30.54 26.7401H20.26C19.41 26.7401 18.73 26.0501 18.73 25.2101C18.73 24.3701 19.42 23.6801 20.26 23.6801H30.54C31.39 23.6801 32.07 24.3701 32.07 25.2101C32.07 26.0501 31.38 26.7401 30.54 26.7401Z" fill="#C30209"/>
<path d="M30.54 32.69H20.26C19.41 32.69 18.73 32 18.73 31.16C18.73 30.32 19.42 29.63 20.26 29.63H30.54C31.39 29.63 32.07 30.32 32.07 31.16C32.07 32 31.38 32.69 30.54 32.69Z" fill="#C30209"/>
<path d="M15.4 20.88C16.2947 20.88 17.02 20.1547 17.02 19.26C17.02 18.3653 16.2947 17.64 15.4 17.64C14.5053 17.64 13.78 18.3653 13.78 19.26C13.78 20.1547 14.5053 20.88 15.4 20.88Z" fill="#C30209"/>
<path d="M15.4 26.83C16.2947 26.83 17.02 26.1047 17.02 25.21C17.02 24.3153 16.2947 23.59 15.4 23.59C14.5053 23.59 13.78 24.3153 13.78 25.21C13.78 26.1047 14.5053 26.83 15.4 26.83Z" fill="#C30209"/>
<path d="M15.4 32.24C16.2947 32.24 17.02 31.5147 17.02 30.62C17.02 29.7253 16.2947 29 15.4 29C14.5053 29 13.78 29.7253 13.78 30.62C13.78 31.5147 14.5053 32.24 15.4 32.24Z" fill="#C30209" stroke="#C30209" stroke-miterlimit="10"/>
<path d="M32.7 34.94H9.99C9.09 34.94 8.37 34.21 8.37 33.32V16.56C8.37 15.66 9.1 14.94 9.99 14.94H35.95C36.85 14.94 37.57 15.67 37.57 16.56V30.26L40.63 27.2V8.97999C40.63 8.07999 39.9 7.35999 39.01 7.35999H6.62C5.72 7.35999 5 8.08999 5 8.97999V37.1C5 38 5.73 38.72 6.62 38.72H29.45L32.69 34.93L32.7 34.94Z" fill="#C30209"/>
<path d="M42.0699 28.9899L44.0499 30.9699L44.5799 30.4399C45.1399 29.8799 45.1399 28.9799 44.5799 28.4299C43.9999 27.8499 43.0499 27.8799 42.5099 28.4899L42.0699 28.9799V28.9899Z" fill="#C30209"/>
<path d="M31.08 39.8099L30.54 42.6299L33.24 41.4299L42.43 32.2399L40.51 30.3199L31.08 39.8099Z" fill="#C30209"/>
</svg>
