<svg width="50" height="50" viewBox="0 0 50 50" fill="none" xmlns="http://www.w3.org/2000/svg">
<path d="M26.29 21.13H23.71V30.16H26.29V21.13Z" fill="#C30209"/>
<path d="M26.29 32.74H23.71V35.32H26.29V32.74Z" fill="#C30209"/>
<path d="M38.02 5H11.98C8.12001 5 5 8.12 5 11.98V38.02C5 41.88 8.12001 45 11.98 45H38.02C41.88 45 45 41.88 45 38.02V11.98C45 8.12 41.88 5 38.02 5ZM42.42 37.26C42.42 39.4 40.69 41.13 38.55 41.13H11.45C9.31001 41.13 7.58 39.4 7.58 37.26V19.2C7.58 17.06 9.31001 15.33 11.45 15.33H38.55C40.69 15.33 42.42 17.06 42.42 19.2V37.26Z" fill="#C30209"/>
<path d="M26.29 21.13H23.71V30.16H26.29V21.13Z" fill="white"/>
<path d="M26.29 32.74H23.71V35.32H26.29V32.74Z" fill="white"/>
<path d="M26.29 21.13H23.71V30.16H26.29V21.13Z" fill="#C30209"/>
<path d="M26.29 32.74H23.71V35.32H26.29V32.74Z" fill="#C30209"/>
</svg>
