<svg width="50" height="50" viewBox="0 0 50 50" fill="none" xmlns="http://www.w3.org/2000/svg">
<path d="M35.76 5H14.24C9.14001 5 5 9.13 5 14.24V35.76C5 40.86 9.13001 45 14.24 45H35.76C40.86 45 45 40.87 45 35.76V14.24C45 9.14 40.87 5 35.76 5ZM13.57 38.09C11.47 38.09 9.76 36.39 9.76 34.28C9.76 32.17 11.46 30.47 13.57 30.47C15.68 30.47 17.38 32.17 17.38 34.28C17.38 36.39 15.68 38.09 13.57 38.09ZM13.57 28.69C11.47 28.69 9.76 26.98 9.76 24.88C9.76 22.78 11.46 21.07 13.57 21.07C15.68 21.07 17.38 22.77 17.38 24.88C17.38 26.99 15.68 28.69 13.57 28.69ZM13.57 19.28C11.47 19.28 9.76 17.58 9.76 15.47C9.76 13.36 11.46 11.66 13.57 11.66C15.68 11.66 17.38 13.36 17.38 15.47C17.38 17.58 15.68 19.28 13.57 19.28ZM39.29 35.64H20.24V32.94H39.29V35.64ZM39.29 26.23H20.24V23.53H39.29V26.23ZM39.29 16.83H20.24V14.13H39.29V16.83Z" fill="#C30209"/>
<path d="M13.57 13.62C14.59 13.62 15.43 14.45 15.43 15.48C15.43 16.51 14.6 17.34 13.57 17.34C12.54 17.34 11.71 16.51 11.71 15.48C11.71 14.45 12.54 13.62 13.57 13.62ZM13.57 12.62C11.99 12.62 10.71 13.9 10.71 15.48C10.71 17.06 11.99 18.34 13.57 18.34C15.15 18.34 16.43 17.06 16.43 15.48C16.43 13.9 15.15 12.62 13.57 12.62Z" fill="#C30209"/>
<path d="M13.57 23.14C14.59 23.14 15.43 23.97 15.43 25C15.43 26.03 14.6 26.86 13.57 26.86C12.54 26.86 11.71 26.03 11.71 25C11.71 23.97 12.54 23.14 13.57 23.14ZM13.57 22.14C11.99 22.14 10.71 23.42 10.71 25C10.71 26.58 11.99 27.86 13.57 27.86C15.15 27.86 16.43 26.58 16.43 25C16.43 23.42 15.15 22.14 13.57 22.14Z" fill="#C30209"/>
<path d="M13.57 32.66C14.59 32.66 15.43 33.49 15.43 34.52C15.43 35.55 14.6 36.38 13.57 36.38C12.54 36.38 11.71 35.55 11.71 34.52C11.71 33.49 12.54 32.66 13.57 32.66ZM13.57 31.66C11.99 31.66 10.71 32.94 10.71 34.52C10.71 36.1 11.99 37.38 13.57 37.38C15.15 37.38 16.43 36.1 16.43 34.52C16.43 32.94 15.15 31.66 13.57 31.66Z" fill="#C30209"/>
</svg>
