<svg width="56" height="56" viewBox="0 0 56 56" fill="none" xmlns="http://www.w3.org/2000/svg">
<g clip-path="url(#clip0_514_50)">
<path d="M34.9604 30.8134C39.6071 30.8134 43.374 27.0466 43.374 22.3999C43.374 17.7532 39.6071 13.9863 34.9604 13.9863C30.3138 13.9863 26.5469 17.7532 26.5469 22.3999C26.5469 27.0466 30.3138 30.8134 34.9604 30.8134Z" fill="#C30209"/>
<path d="M26.8712 29.5195C26.8712 29.5195 34.7088 37.6095 43.0867 29.5195C43.0867 29.5195 50.4939 34.0499 50.4939 45.6995C50.4939 45.6995 34.9612 50.877 19.7521 45.6995C19.7521 45.6995 19.4285 35.3443 26.8712 29.5195Z" fill="#C30209"/>
<path d="M18.1738 40.4346C15.7428 39.7724 13.4957 38.5624 11.6047 36.8973C9.71375 35.2322 8.22915 33.1562 7.26471 30.8285C6.30027 28.5008 5.8816 25.9832 6.04079 23.4686C6.19998 20.9541 6.93282 18.5093 8.18311 16.3219C9.43339 14.1344 11.1679 12.2622 13.2538 10.8488C15.3396 9.43548 17.7214 8.51849 20.2165 8.16814C22.7116 7.81779 25.2538 8.04339 27.6483 8.82764C30.0427 9.6119 32.2258 10.934 34.0301 12.6926L32.5351 13.5016C32.5351 13.5016 27.3575 8.32398 19.5912 9.61837C19.5912 9.61837 15.0608 9.94197 11.5012 14.1487C11.5012 14.1487 6.32364 19.3263 7.94163 27.0927C7.94163 27.0927 9.55962 36.8006 19.5912 38.4186L18.1738 40.4346Z" fill="#C30209"/>
<path d="M22.3453 15.2812V23.8372L17.5625 28.62" stroke="#C30209" stroke-width="1.5" stroke-linecap="round" stroke-linejoin="round"/>
</g>
<defs>
<clipPath id="clip0_514_50">
<rect width="44.4948" height="40" fill="white" transform="translate(6 8)"/>
</clipPath>
</defs>
</svg>
