<svg width="44" height="44" viewBox="0 0 44 44" fill="none" xmlns="http://www.w3.org/2000/svg">
<g clip-path="url(#clip0_1291_22)">
<path d="M26.3891 40.1513H10.1622C9.32709 40.1513 8.52593 39.821 7.9335 39.2324C7.34107 38.6439 7.00549 37.8449 7 37.0099V3.14137C7.00549 2.30632 7.34107 1.50734 7.9335 0.918812C8.52593 0.330281 9.32709 -1.80714e-05 10.1622 7.41564e-10H31.7149C32.5499 -1.80714e-05 33.3511 0.330281 33.9435 0.918812C34.536 1.50734 34.8715 2.30632 34.877 3.14137V31.6841L26.3891 40.1513Z" fill="#C30209"/>
<path d="M13.6367 21.5319H28.1994" stroke="white" stroke-linecap="round" stroke-linejoin="round"/>
<path d="M13.6367 24.2781H28.1994" stroke="white" stroke-linecap="round" stroke-linejoin="round"/>
<path d="M13.709 26.8368H23.7728" stroke="white" stroke-linecap="round" stroke-linejoin="round"/>
<path d="M12.6799 10.4019H11.0988C10.7886 10.4019 10.5371 10.6533 10.5371 10.9636V17.5375C10.5371 17.8478 10.7886 18.0992 11.0988 18.0992H12.6799C12.9901 18.0992 13.2416 17.8478 13.2416 17.5375V10.9636C13.2416 10.6533 12.9901 10.4019 12.6799 10.4019Z" fill="white"/>
<path d="M17.2151 11.8582H15.634C15.3237 11.8582 15.0723 12.1096 15.0723 12.4199V17.5376C15.0723 17.8478 15.3237 18.0993 15.634 18.0993H17.2151C17.5253 18.0993 17.7768 17.8478 17.7768 17.5376V12.4199C17.7768 12.1096 17.5253 11.8582 17.2151 11.8582Z" fill="white"/>
<path d="M21.7287 6.03308H20.1476C19.8374 6.03308 19.5859 6.28456 19.5859 6.59478V17.5376C19.5859 17.8478 19.8374 18.0993 20.1476 18.0993H21.7287C22.0389 18.0993 22.2904 17.8478 22.2904 17.5376V6.59478C22.2904 6.28456 22.0389 6.03308 21.7287 6.03308Z" fill="white"/>
<path d="M30.7795 5.20093H29.1984C28.8882 5.20093 28.6367 5.45241 28.6367 5.76263V17.5376C28.6367 17.8478 28.8882 18.0993 29.1984 18.0993H30.7795C31.0897 18.0993 31.3412 17.8478 31.3412 17.5376V5.76263C31.3412 5.45241 31.0897 5.20093 30.7795 5.20093Z" fill="white"/>
<path d="M26.2639 8.32153H24.6828C24.3726 8.32153 24.1211 8.57302 24.1211 8.88323V17.5438C24.1211 17.8541 24.3726 18.1055 24.6828 18.1055H26.2639C26.5741 18.1055 26.8256 17.8541 26.8256 17.5438V8.88323C26.8256 8.57302 26.5741 8.32153 26.2639 8.32153Z" fill="white"/>
<path d="M34.8777 31.6217L26.2441 40.2553V34.7007C26.2441 33.8841 26.5685 33.1009 27.146 32.5235C27.7234 31.9461 28.5065 31.6217 29.3231 31.6217H34.8777Z" fill="white"/>
</g>
<path d="M30.7368 42.9999C34.5825 42.9999 37.7001 39.8823 37.7001 36.0366C37.7001 32.1908 34.5825 29.0732 30.7368 29.0732C26.891 29.0732 23.7734 32.1908 23.7734 36.0366C23.7734 39.8823 26.891 42.9999 30.7368 42.9999Z" fill="white"/>
<path d="M30.7433 40.0157H28.878C28.3224 40.0157 27.8858 39.701 27.8065 39.1616C27.6584 38.2686 27.8144 37.3451 28.243 36.577C28.3367 36.4111 28.4658 36.2746 28.6184 36.1803C28.7711 36.086 28.9423 36.0369 29.1162 36.0376C29.2245 36.0297 29.3313 36.07 29.4138 36.15C29.7079 36.3819 30.0377 36.5496 30.3861 36.6444C30.8563 36.7465 31.3432 36.6506 31.7554 36.3747L31.9141 36.2623C32.3507 35.9252 32.7674 35.9926 33.1444 36.4197C33.3658 36.6901 33.5169 37.0245 33.581 37.3861C33.6664 37.8521 33.7129 38.3262 33.7199 38.802C33.7397 39.5437 33.3032 40.0157 32.6086 40.0157H30.7433Z" fill="#C30209"/>
<path d="M30.7637 36.0361C30.5016 36.0426 30.2408 35.9963 29.9968 35.8999C29.7527 35.8035 29.5303 35.6589 29.3426 35.4748C29.155 35.2906 29.0059 35.0705 28.9041 34.8275C28.8023 34.5845 28.7499 34.3234 28.75 34.0597C28.75 33.5333 28.9562 33.0281 29.3241 32.6536C29.6919 32.279 30.1918 32.0654 30.7152 32.059C30.9782 32.049 31.2405 32.093 31.486 32.1882C31.7316 32.2833 31.9554 32.4277 32.1438 32.6126C32.3321 32.7975 32.4811 33.0189 32.5817 33.2635C32.6823 33.5081 32.7324 33.7707 32.7289 34.0353C32.7321 34.2969 32.6836 34.5565 32.5863 34.7991C32.489 35.0417 32.3447 35.2625 32.1619 35.4486C31.9791 35.6347 31.7614 35.7825 31.5214 35.8833C31.2814 35.9842 31.0238 36.0361 30.7637 36.0361Z" fill="#C30209"/>
<defs>
<clipPath id="clip0_1291_22">
<rect width="27.877" height="40.2553" fill="white" transform="translate(7)"/>
</clipPath>
</defs>
</svg>
