<svg width="48" height="48" viewBox="0 0 48 48" fill="none" xmlns="http://www.w3.org/2000/svg">
<rect width="48" height="48" rx="6" fill="white"/>
<g clip-path="url(#clip0_797_559)">
<path d="M16.4082 41.0001C15.8635 40.8844 15.3171 40.7702 14.7723 40.6529C11.2219 39.8887 8.51352 36.9107 8.07457 33.3755C7.72747 30.5757 8.57889 28.1762 10.5775 26.2061C16.4705 20.3979 22.3978 14.6231 28.3204 8.84227C30.1368 7.06858 32.3611 6.61031 34.7426 7.31827C37.3405 8.09016 39.0542 9.86842 39.7297 12.4566C40.315 14.6977 39.7484 16.7211 38.0705 18.3715C32.5541 23.7976 27.0269 29.213 21.4841 34.6133C20.0879 35.9744 18.3523 36.2621 16.6542 35.5283C15.121 34.866 14.0921 33.3085 14.1544 31.6718C14.1964 30.5452 14.6509 29.5693 15.4681 28.7685C19.1353 25.1754 22.804 21.5854 26.4774 17.9985C27.1763 17.3164 27.8083 17.2631 28.3624 17.8005C28.9259 18.3486 28.8729 18.9454 28.1647 19.6397C24.5707 23.1612 20.972 26.6766 17.3764 30.1981C16.5203 31.037 16.3382 31.6855 16.7102 32.4879C17.1943 33.5369 18.4566 33.8977 19.4279 33.2507C19.6816 33.0817 19.9026 32.8624 20.1221 32.6493C25.4563 27.4363 30.789 22.2233 36.117 17.0058C37.6813 15.4742 37.9895 13.7462 37.0416 11.9877C36.047 10.1425 33.9986 9.02953 32.0592 9.45278C31.3214 9.61416 30.5369 10.0207 29.9999 10.5398C24.0679 16.275 18.1671 22.0406 12.2912 27.8291C10.3471 29.7444 9.85524 32.0799 10.8359 34.5859C11.8165 37.0888 13.8322 38.3966 16.5359 38.5565C18.2076 38.6555 19.7657 38.1485 20.9984 36.9914C22.7682 35.3319 24.4897 33.6206 26.2253 31.9246C30.3905 27.855 34.5449 23.7732 38.7258 19.7204C39.0433 19.4113 39.5336 19.1525 39.9648 19.116C40.2745 19.0901 40.757 19.4022 40.9127 19.6915C41.0699 19.9807 40.9905 20.4527 40.8769 20.7998C40.7897 21.0617 40.4924 21.2627 40.2745 21.4773C34.615 27.0146 28.9461 32.5412 23.2959 38.0891C21.6693 39.6862 19.7968 40.7199 17.4496 40.8235C17.255 40.8326 17.0666 40.9407 16.8736 41.0016H16.4082V41.0001Z" fill="black"/>
</g>
<defs>
<clipPath id="clip0_797_559">
<rect width="33" height="34" fill="black" transform="translate(8 7)"/>
</clipPath>
</defs>
</svg>
