<svg width="30" height="30" viewBox="0 0 30 30" fill="none" xmlns="http://www.w3.org/2000/svg">
<path d="M19.0701 0L19.5468 0.219913C22.9528 3.39934 26.1589 6.81687 29.4894 10.0855C29.7734 10.4052 29.9071 10.7947 29.9948 11.2071C29.9834 11.3428 30.0109 11.4976 29.9948 11.63C29.9573 11.9434 29.7514 12.3976 29.5523 12.6454C26.4234 15.632 23.5354 18.8719 20.4209 21.8445C19.9383 22.3051 19.0013 23.312 18.3736 22.541C18.2099 22.3402 18.0577 21.8864 18.0577 21.6314V15.7318C12.968 15.6129 7.0186 16.8191 4.29976 21.5819C3.11689 23.6546 2.65454 26.291 3.38856 28.6001C3.43876 28.7574 3.56489 28.9409 3.6037 29.1033C3.74587 29.706 3.39489 30.1644 2.7659 29.9436C2.24492 29.7605 1.65981 28.4854 1.43201 27.9826C-1.48848 21.5379 0.0824981 14.2 5.92179 10.0982C8.96419 7.96084 12.6609 7.06596 16.3479 6.89172L18.0581 6.89341V1.20529C18.0581 1.12959 18.1205 0.835668 18.145 0.742628C18.2391 0.38527 18.4289 0.137445 18.7752 0H19.0705L19.0701 0Z" fill="#C30209"/>
</svg>
