<svg width="17" height="10" viewBox="0 0 17 10" fill="none" xmlns="http://www.w3.org/2000/svg">
<g clip-path="url(#clip0_2795_175)">
<path fill-rule="evenodd" clip-rule="evenodd" d="M6.94884 5.71504C6.41673 6.1079 5.64532 6.3167 4.98101 6.3167C4.05005 6.3167 3.2117 5.9725 2.57728 5.3995C2.5275 5.35447 2.57192 5.29307 2.6318 5.32787C3.31624 5.72627 4.16269 5.9662 5.03693 5.9662C5.62676 5.9662 6.27494 5.8438 6.87149 5.59074C6.96147 5.55257 7.03688 5.65 6.94884 5.71504Z" fill="#F8991D"/>
<path fill-rule="evenodd" clip-rule="evenodd" d="M7.1702 5.46224C7.10209 5.37504 6.72033 5.4209 6.54878 5.44147C6.4968 5.44764 6.4888 5.40227 6.53545 5.36937C6.84007 5.15537 7.33915 5.21717 7.39714 5.28884C7.45555 5.3611 7.38181 5.86164 7.09639 6.10047C7.05244 6.13714 7.01068 6.11757 7.03018 6.06907C7.09442 5.90864 7.23825 5.54944 7.17014 5.4624L7.1702 5.46224Z" fill="#F8991D"/>
<path fill-rule="evenodd" clip-rule="evenodd" d="M6.12585 3.58784V3.35203C6.12565 3.34413 6.12709 3.33627 6.13009 3.32893C6.13309 3.32159 6.13757 3.31492 6.14328 3.30934C6.14899 3.30376 6.1558 3.29937 6.16329 3.29644C6.17078 3.29352 6.1788 3.29212 6.18686 3.29234H7.26501C7.29948 3.29234 7.32717 3.31695 7.32717 3.35188V3.55415C7.32682 3.58818 7.29771 3.63233 7.24619 3.70258L6.68764 4.48435C6.89496 4.47959 7.11423 4.51006 7.30264 4.6138C7.34506 4.6372 7.35663 4.67187 7.35983 4.7059V4.95754C7.35983 4.99217 7.32108 5.03229 7.28043 5.01142C6.94879 4.84098 6.50825 4.82238 6.14128 5.01353C6.10372 5.03304 6.06454 4.9935 6.06454 4.95879V4.71962C6.06454 4.68132 6.06531 4.61588 6.10465 4.55751L6.75154 3.64719H6.18817C6.15374 3.64719 6.12605 3.62311 6.12582 3.58776L6.12585 3.58784ZM2.19304 5.06087H1.86526C1.85044 5.0602 1.83636 5.05434 1.82559 5.04436C1.81481 5.03437 1.80804 5.02093 1.80652 5.00646L1.80664 3.35608C1.80664 3.32304 1.83491 3.29668 1.86992 3.29668H2.17538C2.19054 3.29714 2.20499 3.30304 2.21599 3.31328C2.22699 3.32352 2.23375 3.33737 2.235 3.35218V3.56768H2.24117C2.32076 3.35929 2.47077 3.26198 2.67284 3.26198C2.87792 3.26198 3.00661 3.35929 3.09846 3.56768C3.17806 3.35929 3.35873 3.26198 3.55158 3.26198C3.68936 3.26198 3.83937 3.31759 3.93123 3.44262C4.03535 3.58156 4.01399 3.78288 4.01399 3.96012L4.01364 5.00166C4.01364 5.03455 3.98537 5.06106 3.95032 5.06106H3.6228C3.58983 5.05894 3.56396 5.03342 3.56396 5.00178V4.12673C3.56396 4.0574 3.57009 3.88375 3.55474 3.81778C3.53029 3.70655 3.45679 3.67524 3.36193 3.67524C3.28229 3.67524 3.19965 3.72738 3.16595 3.81074C3.13224 3.89411 3.13533 4.03294 3.13533 4.12673V5.00166C3.13533 5.03455 3.10702 5.06106 3.07209 5.06106H2.7443C2.71133 5.05894 2.68538 5.03342 2.68538 5.00178L2.68503 4.12673C2.68503 3.94269 2.71565 3.67188 2.483 3.67188C2.24722 3.67188 2.25644 3.93573 2.25644 4.12673V5.00166C2.25644 5.03455 2.2281 5.06106 2.1932 5.06106L2.19304 5.06087ZM8.25828 3.59872C8.01652 3.59872 8.00121 3.92163 8.00121 4.12311C8.00121 4.32458 7.99817 4.7552 8.25534 4.7552C8.50955 4.7552 8.52174 4.4079 8.52174 4.19611C8.52174 4.05721 8.51557 3.89048 8.47268 3.7585C8.43597 3.64386 8.36243 3.59872 8.25828 3.59872ZM8.25534 3.26179C8.7422 3.26179 9.00547 3.67169 9.00547 4.19267C9.00547 4.69614 8.71467 5.09565 8.25534 5.09565C7.77766 5.09565 7.5174 4.68571 7.5174 4.17524C7.5174 3.66107 7.78071 3.26179 8.25534 3.26179ZM9.63687 5.06087H9.31001C9.27719 5.05875 9.25116 5.03323 9.25116 5.00159L9.25062 3.35052C9.25343 3.32028 9.28062 3.29668 9.31363 3.29668H9.61782C9.63133 3.29717 9.64432 3.30194 9.65484 3.31027C9.66536 3.31861 9.67284 3.33007 9.67616 3.34292V3.5954H9.68233C9.77427 3.36958 9.90272 3.26194 10.1294 3.26194C10.2763 3.26194 10.4202 3.31404 10.5121 3.45649C10.5978 3.58844 10.5978 3.81071 10.5978 3.97044V5.00903C10.5942 5.03826 10.5674 5.06102 10.535 5.06102H10.2061C10.1917 5.0604 10.178 5.05486 10.1674 5.04537C10.1567 5.03587 10.1498 5.02302 10.1477 5.00903V4.11301C10.1477 3.93237 10.1692 3.66836 9.94263 3.66836C9.863 3.66836 9.78954 3.72042 9.75275 3.80031C9.70682 3.90107 9.70065 4.00174 9.70065 4.11301V5.00147C9.70008 5.01759 9.69307 5.03285 9.68114 5.04395C9.66921 5.05506 9.65331 5.06114 9.63687 5.06087ZM5.59704 5.05671C5.57541 5.07584 5.54409 5.07712 5.51957 5.06427C5.41067 4.97554 5.39115 4.93452 5.33153 4.85002C5.15152 5.02979 5.02399 5.08378 4.79076 5.08378C4.51469 5.08378 4.29986 4.91667 4.29986 4.58257C4.29986 4.32152 4.44408 4.14401 4.64962 4.05706C4.82755 3.98046 5.07613 3.96658 5.26663 3.94564V3.90386C5.26663 3.82727 5.27276 3.73683 5.22676 3.67067C5.18677 3.6115 5.1101 3.58712 5.04258 3.58712C4.91744 3.58712 4.8063 3.64995 4.77892 3.7802C4.77322 3.80919 4.7517 3.83793 4.72204 3.8394L4.40405 3.80538C4.37706 3.79948 4.34737 3.77834 4.35508 3.73816C4.42723 3.3653 4.76689 3.24909 5.07563 3.24595H5.09992C5.25803 3.24784 5.45972 3.29029 5.58258 3.40598C5.74223 3.55215 5.7268 3.74704 5.7268 3.95948V4.46034C5.7268 4.61112 5.7907 4.67717 5.85063 4.75837C5.87161 4.78768 5.87631 4.82242 5.84955 4.84386C5.7826 4.8989 5.66356 5.0003 5.59808 5.05739L5.59723 5.05667L5.59704 5.05671ZM5.26652 4.27267C5.26652 4.39804 5.26956 4.50238 5.20509 4.6138C5.15291 4.70424 5.07011 4.75996 4.97803 4.75996C4.85227 4.75996 4.77862 4.66597 4.77862 4.52677C4.77862 4.2529 5.02928 4.20307 5.26652 4.20307V4.27267ZM1.29722 5.05671C1.27555 5.07584 1.2442 5.07712 1.21971 5.06427C1.11077 4.97554 1.09122 4.93452 1.03175 4.85002C0.851626 5.02979 0.724137 5.08378 0.490907 5.08378C0.214796 5.08378 0 4.91667 0 4.58257C0 4.32152 0.144187 4.14401 0.349767 4.05706C0.527697 3.98046 0.776313 3.96658 0.966506 3.94564V3.90386C0.966506 3.82727 0.972676 3.73683 0.926631 3.67067C0.886718 3.6115 0.809978 3.58712 0.742531 3.58712C0.617433 3.58712 0.506178 3.64995 0.478914 3.7802C0.473246 3.80919 0.45165 3.83793 0.421957 3.8394L0.104043 3.80538C0.077049 3.79948 0.0472783 3.77834 0.055068 3.73816C0.127065 3.3653 0.466767 3.24909 0.775541 3.24595H0.799875C0.957983 3.24784 1.15974 3.29029 1.28261 3.40598C1.44214 3.55215 1.42683 3.74704 1.42683 3.95948V4.46034C1.42683 4.61112 1.49062 4.67717 1.55054 4.75837C1.57152 4.78768 1.57626 4.82242 1.54954 4.84386C1.48252 4.8989 1.36347 5.0003 1.29795 5.05739L1.29722 5.05667V5.05671ZM0.966506 4.27267C0.966506 4.39804 0.969591 4.50238 0.905113 4.6138C0.853053 4.70424 0.770143 4.75996 0.678054 4.75996C0.5523 4.75996 0.478644 4.66597 0.478644 4.52677C0.478644 4.2529 0.729304 4.20307 0.966506 4.20307V4.27267ZM15.0815 5.65292V5.53164C15.0815 5.49716 15.0989 5.47342 15.1355 5.47553C15.2041 5.48506 15.301 5.49444 15.3698 5.4806C15.4597 5.46234 15.5241 5.39981 15.5623 5.31425C15.6161 5.19372 15.6516 5.0966 15.6741 5.03281L14.9916 3.37559C14.98 3.3475 14.9767 3.29525 15.034 3.29525H15.2725C15.318 3.29525 15.3365 3.32356 15.3467 3.35135L15.8414 4.69728L16.3136 3.35135C16.3233 3.32379 16.3426 3.29525 16.3878 3.29525H16.6127C16.6696 3.29525 16.6664 3.34738 16.6551 3.37559L15.9783 5.08446C15.8906 5.31198 15.7739 5.67425 15.5112 5.73723C15.3794 5.77088 15.2131 5.75871 15.1156 5.71867C15.0909 5.70657 15.0815 5.67421 15.0815 5.65281L15.0815 5.65292ZM14.7634 4.95977C14.7633 4.97464 14.7572 4.98888 14.7464 4.99937C14.7357 5.00987 14.7211 5.01577 14.706 5.0158H14.5378C14.5217 5.01598 14.5061 5.01036 14.494 5.00001C14.4819 4.98966 14.474 4.9753 14.472 4.95966L14.4551 4.84745C14.3729 4.91509 14.28 4.96907 14.18 5.00726C13.9822 5.08261 13.7541 5.09505 13.5608 4.97868C13.421 4.89448 13.3468 4.73006 13.3468 4.56046C13.3468 4.42919 13.3881 4.29913 13.4795 4.20458C13.6016 4.07551 13.7784 4.01214 13.9921 4.01214C14.1211 4.01214 14.3057 4.027 14.4401 4.07006V3.8442C14.4401 3.61449 14.3415 3.51506 14.0815 3.51506C13.8827 3.51506 13.7306 3.54451 13.519 3.60897C13.4852 3.6101 13.4653 3.58485 13.4653 3.55396V3.42542C13.4653 3.39445 13.4923 3.36459 13.5214 3.35547C13.6725 3.2909 13.8866 3.2506 14.1142 3.24323C14.4109 3.24323 14.7635 3.30882 14.7635 3.75623V4.95981L14.7634 4.95977ZM14.4401 4.63017V4.28915C14.3272 4.25891 14.1403 4.24639 14.0681 4.24639C13.9538 4.24639 13.8287 4.27286 13.7634 4.34182C13.7146 4.39233 13.6925 4.46488 13.6925 4.53501C13.6925 4.62575 13.7245 4.71648 13.7992 4.76163C13.886 4.81951 14.0208 4.81244 14.1474 4.7772C14.2691 4.74318 14.3832 4.68344 14.44 4.62998L14.4401 4.63017ZM12.2832 3.52024C12.6564 3.52024 12.7581 3.80795 12.7581 4.1374C12.7601 4.35959 12.7185 4.55754 12.6012 4.67097C12.5134 4.7558 12.4153 4.77887 12.2678 4.77887C12.1364 4.77887 11.9635 4.7118 11.8343 4.61819V3.67619C11.9688 3.57498 12.1402 3.52024 12.2832 3.52024ZM11.7771 5.71202H11.5518C11.5366 5.71198 11.5221 5.70606 11.5114 5.69555C11.5006 5.68505 11.4946 5.67081 11.4945 5.65595V3.35442C11.4946 3.33954 11.5006 3.32529 11.5113 3.31477C11.5221 3.30426 11.5366 3.29834 11.5518 3.29831H11.7243C11.7403 3.29818 11.7558 3.30382 11.7679 3.31416C11.78 3.3245 11.7878 3.33882 11.7898 3.35442L11.808 3.47491C11.9695 3.33434 12.1775 3.24428 12.3757 3.24428C12.9305 3.24428 13.113 3.69248 13.113 4.15864C13.113 4.65735 12.8339 5.05807 12.3619 5.05807C12.1673 5.0584 11.9794 4.9883 11.8343 4.86121V5.65599C11.8342 5.67085 11.8282 5.68508 11.8174 5.69559C11.8067 5.70609 11.7922 5.71201 11.777 5.71205L11.7771 5.71202Z" fill="#96959A"/>
</g>
<defs>
<clipPath id="clip0_2795_175">
<rect width="16.6618" height="10" fill="white"/>
</clipPath>
</defs>
</svg>
