<svg width="8" height="10" viewBox="0 0 8 10" fill="none" xmlns="http://www.w3.org/2000/svg">
<g clip-path="url(#clip0_2796_185)">
<path d="M6.05859 4.73828C6.59961 4.46094 6.94531 3.96875 6.86523 3.15039C6.75977 2.0293 5.83984 1.6543 4.62109 1.55078V0H3.67383V1.50781C3.42773 1.50781 3.17578 1.51367 2.92383 1.51953V0H1.97656V1.55078C1.62891 1.56055 1.22266 1.55664 0.0742188 1.55078V2.56055C0.822266 2.54688 1.21484 2.5 1.30469 2.97852V7.22461C1.24805 7.60547 0.943359 7.55078 0.263672 7.53906L0.0742188 8.66602C1.80273 8.66602 1.97656 8.67188 1.97656 8.67188V10H2.92383V8.68945C3.18164 8.69531 3.43555 8.69531 3.67383 8.69531V10H4.62109V8.67188C6.20898 8.58594 7.26953 8.18555 7.41211 6.68945C7.52344 5.49023 6.95703 4.95312 6.05859 4.73828ZM2.94141 2.62891C3.47656 2.62891 5.15039 2.46289 5.15039 3.57617C5.15039 4.64062 3.47656 4.51758 2.94141 4.51758V2.62891ZM2.94141 7.54688V5.46484C3.58203 5.46484 5.54102 5.28711 5.54102 6.50586C5.54102 7.68164 3.58008 7.54688 2.94141 7.54688Z" fill="#96959A"/>
</g>
<defs>
<clipPath id="clip0_2796_185">
<rect width="7.5" height="10" fill="white"/>
</clipPath>
</defs>
</svg>
