<svg width="11" height="12" viewBox="0 0 11 12" fill="none" xmlns="http://www.w3.org/2000/svg">
<g clip-path="url(#clip0_2808_569)">
<path d="M3.92857 2.625C3.92857 1.79766 4.63326 1.125 5.5 1.125C6.36674 1.125 7.07143 1.79766 7.07143 2.625V3.75H3.92857V2.625ZM2.75 3.75H1.17857C0.527902 3.75 0 4.25391 0 4.875V9.75C0 10.9922 1.0558 12 2.35714 12H8.64286C9.9442 12 11 10.9922 11 9.75V4.875C11 4.25391 10.4721 3.75 9.82143 3.75H8.25V2.625C8.25 1.17422 7.01987 0 5.5 0C3.98013 0 2.75 1.17422 2.75 2.625V3.75ZM3.33929 4.875C3.49557 4.875 3.64546 4.93426 3.75597 5.03975C3.86649 5.14524 3.92857 5.28832 3.92857 5.4375C3.92857 5.58668 3.86649 5.72976 3.75597 5.83525C3.64546 5.94074 3.49557 6 3.33929 6C3.183 6 3.03311 5.94074 2.9226 5.83525C2.81209 5.72976 2.75 5.58668 2.75 5.4375C2.75 5.28832 2.81209 5.14524 2.9226 5.03975C3.03311 4.93426 3.183 4.875 3.33929 4.875ZM7.07143 5.4375C7.07143 5.28832 7.13351 5.14524 7.24403 5.03975C7.35454 4.93426 7.50443 4.875 7.66071 4.875C7.817 4.875 7.96689 4.93426 8.0774 5.03975C8.18791 5.14524 8.25 5.28832 8.25 5.4375C8.25 5.58668 8.18791 5.72976 8.0774 5.83525C7.96689 5.94074 7.817 6 7.66071 6C7.50443 6 7.35454 5.94074 7.24403 5.83525C7.13351 5.72976 7.07143 5.58668 7.07143 5.4375Z" fill="#34C759"/>
</g>
<defs>
<clipPath id="clip0_2808_569">
<rect width="11" height="12" fill="white"/>
</clipPath>
</defs>
</svg>
