<svg width="8" height="10" viewBox="0 0 8 10" fill="none" xmlns="http://www.w3.org/2000/svg">
<g clip-path="url(#clip0_2793_142)">
<path d="M2.17588 5.7793C2.10752 6.1543 1.83603 7.90235 1.75596 8.39649C1.7501 8.43164 1.73643 8.44532 1.69736 8.44532H0.240331C0.0918939 8.44532 -0.0155279 8.31641 0.00400332 8.17383L1.14853 0.910161C1.17783 0.722661 1.3458 0.580082 1.53916 0.580082C4.51377 0.580082 4.76377 0.507817 5.52353 0.802739C6.69736 1.25782 6.80478 2.35547 6.38291 3.54297C5.96299 4.76563 4.96689 5.29102 3.64658 5.30665C2.79892 5.32032 2.28916 5.16993 2.17588 5.7793ZM6.97471 2.96875C6.93955 2.94336 6.92588 2.9336 6.91611 2.99414C6.87705 3.2168 6.8165 3.4336 6.74424 3.65039C5.96494 5.87305 3.80478 5.67969 2.7501 5.67969C2.63096 5.67969 2.55283 5.74415 2.53721 5.86329C2.0958 8.60547 2.00791 9.17774 2.00791 9.17774C1.98838 9.31641 2.07627 9.42969 2.21494 9.42969H3.45517C3.62314 9.42969 3.76182 9.30665 3.79502 9.13868C3.80869 9.03321 3.77353 9.25782 4.07627 7.35547C4.16611 6.92579 4.35557 6.97071 4.64853 6.97071C6.03525 6.97071 7.11728 6.40821 7.43955 4.77735C7.5665 4.09766 7.52939 3.38282 6.97471 2.96875Z" fill="#96959A"/>
</g>
<defs>
<clipPath id="clip0_2793_142">
<rect width="7.5" height="10" fill="white"/>
</clipPath>
</defs>
</svg>
