<svg width="8" height="10" viewBox="0 0 8 10" fill="none" xmlns="http://www.w3.org/2000/svg">
<g clip-path="url(#clip0_392_1012)">
<path d="M3.84226 2.22794C6.50011 2.10153 8.36353 4.78051 7.28202 7.13991C6.15875 9.59033 2.68245 9.93114 1.07584 7.74569C-0.587143 5.48236 1.00485 2.36245 3.84226 2.22693V2.22794ZM2.06236 3.53456C1.97258 3.56086 1.935 3.72267 2.00912 3.78638C2.63756 4.42149 3.19711 5.12435 3.82556 5.75845C3.85166 5.78474 3.92995 5.86969 3.95709 5.87677C4.1022 5.91925 4.21286 5.81003 4.16692 5.6735L2.18658 3.53861C2.149 3.52748 2.10098 3.52243 2.06236 3.53355V3.53456Z" fill="#6F42C1"/>
<path d="M4.6862 1.27408V2.05179C4.22687 1.98099 3.77798 1.98099 3.31865 2.05179V1.27408H3.01591C2.98563 1.27408 2.89377 1.21745 2.86871 1.18913C2.73718 1.03845 2.83948 0.836182 3.03365 0.817979C3.65479 0.761345 4.37197 0.858431 5.00355 0.823035C5.17163 0.861465 5.2447 1.0526 5.13509 1.18913C5.11317 1.21644 5.01608 1.27408 4.98789 1.27408H4.68515H4.6862Z" fill="#6F42C1"/>
<path d="M6.92714 2.2643C7.00439 2.24711 7.07329 2.2552 7.13801 2.29767C7.18707 2.33105 7.5274 2.65972 7.55767 2.70523C7.6819 2.89132 7.51069 3.11178 7.28729 3.04301C7.22674 3.02481 7.21317 2.9793 7.15993 2.96211L6.8645 3.24528L6.54297 2.93278L6.83318 2.63242C6.72148 2.52623 6.77368 2.29767 6.92714 2.26329V2.2643Z" fill="#6F42C1"/>
</g>
<defs>
<clipPath id="clip0_392_1012">
<rect width="7.2" height="8.4" fill="white" transform="translate(0.400391 0.799805)"/>
</clipPath>
</defs>
</svg>
